<svg width="468" height="57" viewBox="0 0 468 57" fill="none" xmlns="http://www.w3.org/2000/svg">
<path d="M26.8101 1.948C31.4351 1.948 35.5914 2.65112 39.2893 4.05216C42.982 5.45841 45.9143 7.52612 48.081 10.2605C50.2581 12.9845 51.3518 16.3126 51.3518 20.2397H36.5601C36.5601 18.2292 35.6695 16.6042 33.8935 15.3647C32.1122 14.1303 29.9664 13.5105 27.456 13.5105C23.7997 13.5105 21.0393 14.4845 19.1643 16.4272C17.2997 18.3595 16.3726 21.1042 16.3726 24.6563V29.1355C16.3726 32.6772 17.2997 35.422 19.1643 37.3647C21.0393 39.297 23.7997 40.2605 27.456 40.2605C29.9664 40.2605 32.1122 39.672 33.8935 38.4897C35.6695 37.297 36.5601 35.7605 36.5601 33.8855H25.6226V24.0938H51.3518V50.9897H43.3518L41.8101 46.2188C37.4195 49.9584 31.6747 51.823 24.581 51.823C16.5914 51.823 10.5862 49.7345 6.56014 45.5522C2.54451 41.3751 0.539307 35.1511 0.539307 26.8855C0.539307 18.7188 2.81535 12.5261 7.37264 8.30216C11.9247 4.06779 18.4039 1.948 26.8101 1.948Z" fill="white"/>
<path d="M98.4279 50.9897H82.9487V32.2814L63.8237 2.78137H81.6154L90.8654 18.823H91.1362L100.386 2.78137H117.282L98.4279 32.2814V50.9897Z" fill="white"/>
<path d="M171.984 50.9897V33.6147C171.984 31.4637 172.067 29.2553 172.234 26.9897C172.401 24.7293 172.572 22.823 172.755 21.2814C172.947 19.7397 173.067 18.7605 173.109 18.3439H172.838L163.942 50.9897H151.817L142.838 18.4064H142.567C142.609 18.823 142.734 19.797 142.942 21.323C143.161 22.8387 143.364 24.7293 143.546 26.9897C143.723 29.2553 143.817 31.4637 143.817 33.6147V50.9897H129.609V2.78137H151.463L158.755 30.5939H159.026L166.255 2.78137H187.338V50.9897H171.984Z" fill="white"/>
<path d="M228.524 1.948C233.149 1.948 237.306 2.65112 241.003 4.05216C244.696 5.45841 247.628 7.52612 249.795 10.2605C251.972 12.9845 253.066 16.3126 253.066 20.2397H238.274C238.274 18.2292 237.384 16.6042 235.608 15.3647C233.826 14.1303 231.681 13.5105 229.17 13.5105C225.514 13.5105 222.753 14.4845 220.878 16.4272C219.014 18.3595 218.087 21.1042 218.087 24.6563V29.1355C218.087 32.6772 219.014 35.422 220.878 37.3647C222.753 39.297 225.514 40.2605 229.17 40.2605C231.681 40.2605 233.826 39.672 235.608 38.4897C237.384 37.297 238.274 35.7605 238.274 33.8855H227.337V24.0938H253.066V50.9897H245.066L243.524 46.2188C239.134 49.9584 233.389 51.823 226.295 51.823C218.306 51.823 212.3 49.7345 208.274 45.5522C204.259 41.3751 202.253 35.1511 202.253 26.8855C202.253 18.7188 204.529 12.5261 209.087 8.30216C213.639 4.06779 220.118 1.948 228.524 1.948Z" fill="white"/>
<path d="M270.226 2.78137H311.913V14.3439H285.705V21.0105H308.121V32.073H285.705V39.4272H312.392V50.9897H270.226V2.78137Z" fill="white"/>
<path d="M362.837 50.9897L342.608 27.5939V50.9897H328.379V2.78137H341.9L362.15 26.5314V2.78137H376.379V50.9897H362.837Z" fill="white"/>
<path d="M425.208 2.78137H466.896V14.3439H440.687V21.0105H463.104V32.073H440.687V39.4272H467.375V50.9897H425.208V2.78137Z" fill="white"/>
<mask id="mask0_197_838" style="mask-type:luminance" maskUnits="userSpaceOnUse" x="397" y="0" width="7" height="4">
<path d="M397.333 0.192749H404V3.33337H397.333V0.192749Z" fill="white"/>
</mask>
<g mask="url(#mask0_197_838)">
<path d="M403.047 3.23442H398.807C398.703 3.23442 398.656 3.18233 398.656 3.08337V1.11462C398.656 0.864624 398.745 0.651082 398.922 0.473999C399.099 0.296915 399.313 0.208374 399.563 0.208374H402.292C402.547 0.208374 402.76 0.296915 402.938 0.473999C403.115 0.651082 403.203 0.864624 403.203 1.11462V3.08337C403.203 3.18233 403.151 3.23442 403.052 3.23442H403.047Z" fill="#FF6500"/>
</g>
<mask id="mask1_197_838" style="mask-type:luminance" maskUnits="userSpaceOnUse" x="397" y="52" width="7" height="5">
<path d="M397.333 52.6667H404V56.1928H397.333V52.6667Z" fill="white"/>
</mask>
<g mask="url(#mask1_197_838)">
<path d="M402.292 55.7865H399.568C399.318 55.7865 399.104 55.698 398.927 55.5209C398.75 55.3438 398.662 55.1303 398.662 54.8803V52.9115C398.662 52.8126 398.708 52.7605 398.813 52.7605H403.052C403.151 52.7605 403.203 52.8126 403.203 52.9115V54.8803C403.203 55.1303 403.115 55.3438 402.938 55.5209C402.761 55.698 402.547 55.7865 402.292 55.7865Z" fill="#FF6500"/>
</g>
<path d="M409.542 10.7813H392.625C392.422 10.7813 392.229 10.7448 392.047 10.6667C391.859 10.5886 391.698 10.4792 391.552 10.3386C391.411 10.198 391.302 10.0313 391.224 9.849C391.151 9.6615 391.109 9.46879 391.109 9.26567V6.23962C391.109 6.0365 391.151 5.84379 391.224 5.6615C391.302 5.474 391.411 5.31254 391.552 5.16671C391.698 5.02608 391.859 4.91671 392.047 4.83858C392.229 4.76567 392.422 4.724 392.625 4.724H409.542C409.74 4.724 409.932 4.76567 410.12 4.83858C410.307 4.91671 410.469 5.02608 410.609 5.16671C410.755 5.31254 410.865 5.474 410.938 5.6615C411.016 5.84379 411.057 6.0365 411.057 6.23962V9.26567C411.057 9.46879 411.016 9.6615 410.938 9.849C410.865 10.0313 410.755 10.198 410.609 10.3386C410.469 10.4792 410.307 10.5886 410.12 10.6667C409.932 10.7448 409.74 10.7813 409.542 10.7813Z" fill="#FF6500"/>
<mask id="mask2_197_838" style="mask-type:luminance" maskUnits="userSpaceOnUse" x="387" y="11" width="29" height="9">
<path d="M387.287 11.3334H415.287V19.3334H387.287V11.3334Z" fill="white"/>
</mask>
<g mask="url(#mask2_197_838)">
<path d="M413.771 18.3334H388.396C388.198 18.3334 388.005 18.2917 387.818 18.2188C387.63 18.1407 387.469 18.0313 387.328 17.8907C387.182 17.7449 387.073 17.5834 387 17.3959C386.922 17.2136 386.88 17.0209 386.88 16.8178V13.7917C386.88 13.5886 386.922 13.3959 387 13.2084C387.073 13.0261 387.182 12.8595 387.328 12.7188C387.469 12.5782 387.63 12.4688 387.818 12.3907C388.005 12.3126 388.198 12.2761 388.396 12.2761H413.771C413.969 12.2761 414.162 12.3126 414.349 12.3907C414.531 12.4688 414.698 12.5782 414.839 12.7188C414.979 12.8595 415.089 13.0261 415.167 13.2084C415.245 13.3959 415.281 13.5886 415.281 13.7917V16.8178C415.281 17.0209 415.245 17.2136 415.167 17.3959C415.089 17.5834 414.979 17.7449 414.839 17.8907C414.698 18.0313 414.531 18.1407 414.349 18.2188C414.162 18.2917 413.969 18.3334 413.771 18.3334Z" fill="#FF6500"/>
</g>
<path d="M409.542 51.2553H392.625C392.422 51.2553 392.229 51.2188 392.047 51.1407C391.859 51.0626 391.698 50.9532 391.552 50.8126C391.411 50.672 391.302 50.5053 391.224 50.323C391.151 50.1355 391.109 49.9428 391.109 49.7449V46.7136C391.109 46.5157 391.151 46.3178 391.224 46.1355C391.302 45.948 391.411 45.7865 391.552 45.6407C391.698 45.5001 391.859 45.3907 392.047 45.3126C392.229 45.2397 392.422 45.198 392.625 45.198H409.542C409.74 45.198 409.932 45.2397 410.12 45.3126C410.307 45.3907 410.469 45.5001 410.609 45.6407C410.755 45.7865 410.865 45.948 410.938 46.1355C411.016 46.3178 411.057 46.5157 411.057 46.7136V49.7449C411.057 49.9428 411.016 50.1355 410.938 50.323C410.865 50.5053 410.755 50.672 410.609 50.8126C410.469 50.9532 410.307 51.0626 410.12 51.1407C409.932 51.2188 409.74 51.2553 409.542 51.2553Z" fill="#FF6500"/>
<mask id="mask3_197_838" style="mask-type:luminance" maskUnits="userSpaceOnUse" x="387" y="36" width="29" height="9">
<path d="M387.287 36.6667H415.287V44.6667H387.287V36.6667Z" fill="white"/>
</mask>
<g mask="url(#mask3_197_838)">
<path d="M413.771 43.7032H388.396C388.198 43.7032 388.005 43.6667 387.818 43.5886C387.63 43.5105 387.469 43.4011 387.328 43.2605C387.182 43.1198 387.073 42.9532 387 42.7709C386.922 42.5834 386.88 42.3907 386.88 42.1875V39.1615C386.88 38.9584 386.922 38.7657 387 38.5834C387.073 38.3959 387.182 38.2344 387.328 38.0886C387.469 37.948 387.63 37.8386 387.818 37.7605C388.005 37.6875 388.198 37.6459 388.396 37.6459H413.771C413.969 37.6459 414.162 37.6875 414.349 37.7605C414.531 37.8386 414.698 37.948 414.839 38.0886C414.979 38.2344 415.089 38.3959 415.167 38.5834C415.245 38.7657 415.281 38.9584 415.281 39.1615V42.1875C415.281 42.3907 415.245 42.5834 415.167 42.7709C415.089 42.9532 414.979 43.1198 414.839 43.2605C414.698 43.4011 414.531 43.5105 414.349 43.5886C414.162 43.6667 413.969 43.7032 413.771 43.7032Z" fill="#FF6500"/>
</g>
<path d="M404.557 36.1563H397.307C397.203 36.1563 397.156 36.1042 397.156 36V19.9948C397.156 19.8958 397.203 19.8438 397.307 19.8438H404.557C404.656 19.8438 404.708 19.8958 404.708 19.9948V36C404.708 36.1042 404.656 36.1563 404.557 36.1563Z" fill="#FF6500"/>
</svg>
