<svg xmlns="http://www.w3.org/2000/svg" xmlns:xlink="http://www.w3.org/1999/xlink" width="500" zoomAndPan="magnify" viewBox="0 0 375 374.999991" height="500" preserveAspectRatio="xMidYMid meet" version="1.0"><defs><g/><clipPath id="302430ee7f"><path d="M 310 166.644531 L 315 166.644531 L 315 169 L 310 169 Z M 310 166.644531 " clip-rule="nonzero"/></clipPath><clipPath id="635c42be96"><path d="M 310 206 L 315 206 L 315 208.644531 L 310 208.644531 Z M 310 206 " clip-rule="nonzero"/></clipPath><clipPath id="60de77296f"><path d="M 302.464844 175 L 323.464844 175 L 323.464844 181 L 302.464844 181 Z M 302.464844 175 " clip-rule="nonzero"/></clipPath><clipPath id="bb9d0158eb"><path d="M 302.464844 194 L 323.464844 194 L 323.464844 200 L 302.464844 200 Z M 302.464844 194 " clip-rule="nonzero"/></clipPath></defs><g fill="#232323" fill-opacity="1"><g transform="translate(10.045146, 204.742251)"><g><path d="M 22.0625 -36.78125 C 25.53125 -36.78125 28.648438 -36.253906 31.421875 -35.203125 C 34.191406 -34.148438 36.390625 -32.597656 38.015625 -30.546875 C 39.648438 -28.503906 40.46875 -26.007812 40.46875 -23.0625 L 29.375 -23.0625 C 29.375 -24.570312 28.707031 -25.789062 27.375 -26.71875 C 26.039062 -27.644531 24.429688 -28.109375 22.546875 -28.109375 C 19.804688 -28.109375 17.734375 -27.378906 16.328125 -25.921875 C 14.929688 -24.472656 14.234375 -22.414062 14.234375 -19.75 L 14.234375 -16.390625 C 14.234375 -13.734375 14.929688 -11.675781 16.328125 -10.21875 C 17.734375 -8.769531 19.804688 -8.046875 22.546875 -8.046875 C 24.429688 -8.046875 26.039062 -8.488281 27.375 -9.375 C 28.707031 -10.269531 29.375 -11.421875 29.375 -12.828125 L 21.171875 -12.828125 L 21.171875 -20.171875 L 40.46875 -20.171875 L 40.46875 0 L 34.46875 0 L 33.3125 -3.578125 C 30.019531 -0.773438 25.710938 0.625 20.390625 0.625 C 14.398438 0.625 9.894531 -0.941406 6.875 -4.078125 C 3.863281 -7.210938 2.359375 -11.878906 2.359375 -18.078125 C 2.359375 -24.203125 4.066406 -28.847656 7.484375 -32.015625 C 10.898438 -35.191406 15.757812 -36.78125 22.0625 -36.78125 Z M 22.0625 -36.78125 "/></g></g></g><g fill="#232323" fill-opacity="1"><g transform="translate(59.492849, 204.742251)"><g><path d="M 26.328125 0 L 14.71875 0 L 14.71875 -14.03125 L 0.375 -36.15625 L 13.71875 -36.15625 L 20.65625 -24.125 L 20.859375 -24.125 L 27.796875 -36.15625 L 40.46875 -36.15625 L 26.328125 -14.03125 Z M 26.328125 0 "/></g></g></g><g fill="#232323" fill-opacity="1"><g transform="translate(106.050473, 204.742251)"><g><path d="M 34.9375 0 L 34.9375 -13.03125 C 34.9375 -14.644531 35 -16.300781 35.125 -18 C 35.25 -19.695312 35.378906 -21.125 35.515625 -22.28125 C 35.660156 -23.4375 35.75 -24.171875 35.78125 -24.484375 L 35.578125 -24.484375 L 28.90625 0 L 19.8125 0 L 13.078125 -24.4375 L 12.875 -24.4375 C 12.90625 -24.125 13 -23.394531 13.15625 -22.25 C 13.320312 -21.113281 13.472656 -19.695312 13.609375 -18 C 13.742188 -16.300781 13.8125 -14.644531 13.8125 -13.03125 L 13.8125 0 L 3.15625 0 L 3.15625 -36.15625 L 19.546875 -36.15625 L 25.015625 -15.296875 L 25.21875 -15.296875 L 30.640625 -36.15625 L 46.453125 -36.15625 L 46.453125 0 Z M 34.9375 0 "/></g></g></g><g fill="#232323" fill-opacity="1"><g transform="translate(161.330857, 204.742251)"><g><path d="M 22.0625 -36.78125 C 25.53125 -36.78125 28.648438 -36.253906 31.421875 -35.203125 C 34.191406 -34.148438 36.390625 -32.597656 38.015625 -30.546875 C 39.648438 -28.503906 40.46875 -26.007812 40.46875 -23.0625 L 29.375 -23.0625 C 29.375 -24.570312 28.707031 -25.789062 27.375 -26.71875 C 26.039062 -27.644531 24.429688 -28.109375 22.546875 -28.109375 C 19.804688 -28.109375 17.734375 -27.378906 16.328125 -25.921875 C 14.929688 -24.472656 14.234375 -22.414062 14.234375 -19.75 L 14.234375 -16.390625 C 14.234375 -13.734375 14.929688 -11.675781 16.328125 -10.21875 C 17.734375 -8.769531 19.804688 -8.046875 22.546875 -8.046875 C 24.429688 -8.046875 26.039062 -8.488281 27.375 -9.375 C 28.707031 -10.269531 29.375 -11.421875 29.375 -12.828125 L 21.171875 -12.828125 L 21.171875 -20.171875 L 40.46875 -20.171875 L 40.46875 0 L 34.46875 0 L 33.3125 -3.578125 C 30.019531 -0.773438 25.710938 0.625 20.390625 0.625 C 14.398438 0.625 9.894531 -0.941406 6.875 -4.078125 C 3.863281 -7.210938 2.359375 -11.878906 2.359375 -18.078125 C 2.359375 -24.203125 4.066406 -28.847656 7.484375 -32.015625 C 10.898438 -35.191406 15.757812 -36.78125 22.0625 -36.78125 Z M 22.0625 -36.78125 "/></g></g></g><g fill="#232323" fill-opacity="1"><g transform="translate(210.778554, 204.742251)"><g><path d="M 3.890625 -36.15625 L 35.15625 -36.15625 L 35.15625 -27.484375 L 15.5 -27.484375 L 15.5 -22.484375 L 32.3125 -22.484375 L 32.3125 -14.1875 L 15.5 -14.1875 L 15.5 -8.671875 L 35.515625 -8.671875 L 35.515625 0 L 3.890625 0 Z M 3.890625 -36.15625 "/></g></g></g><g fill="#232323" fill-opacity="1"><g transform="translate(254.393564, 204.742251)"><g><path d="M 29.734375 0 L 14.5625 -17.546875 L 14.5625 0 L 3.890625 0 L 3.890625 -36.15625 L 14.03125 -36.15625 L 29.21875 -18.34375 L 29.21875 -36.15625 L 39.890625 -36.15625 L 39.890625 0 Z M 29.734375 0 "/></g></g></g><g fill="#232323" fill-opacity="1"><g transform="translate(303.841261, 204.742251)"><g/></g></g><g fill="#232323" fill-opacity="1"><g transform="translate(327.015568, 204.742251)"><g><path d="M 3.890625 -36.15625 L 35.15625 -36.15625 L 35.15625 -27.484375 L 15.5 -27.484375 L 15.5 -22.484375 L 32.3125 -22.484375 L 32.3125 -14.1875 L 15.5 -14.1875 L 15.5 -8.671875 L 35.515625 -8.671875 L 35.515625 0 L 3.890625 0 Z M 3.890625 -36.15625 "/></g></g></g><g clip-path="url(#302430ee7f)"><path fill="#ff6500" d="M 314.285156 168.925781 L 311.105469 168.925781 C 311.027344 168.925781 310.992188 168.886719 310.992188 168.8125 L 310.992188 167.335938 C 310.992188 167.148438 311.058594 166.988281 311.191406 166.855469 C 311.324219 166.722656 311.484375 166.65625 311.671875 166.65625 L 313.71875 166.65625 C 313.910156 166.65625 314.070312 166.722656 314.203125 166.855469 C 314.335938 166.988281 314.402344 167.148438 314.402344 167.335938 L 314.402344 168.8125 C 314.402344 168.886719 314.363281 168.925781 314.289062 168.925781 Z M 314.285156 168.925781 " fill-opacity="1" fill-rule="nonzero"/></g><g clip-path="url(#635c42be96)"><path fill="#ff6500" d="M 313.71875 208.339844 L 311.675781 208.339844 C 311.488281 208.339844 311.328125 208.273438 311.195312 208.140625 C 311.0625 208.007812 310.996094 207.847656 310.996094 207.660156 L 310.996094 206.183594 C 310.996094 206.109375 311.03125 206.070312 311.109375 206.070312 L 314.289062 206.070312 C 314.363281 206.070312 314.402344 206.109375 314.402344 206.183594 L 314.402344 207.660156 C 314.402344 207.847656 314.335938 208.007812 314.203125 208.140625 C 314.070312 208.273438 313.910156 208.339844 313.71875 208.339844 Z M 313.71875 208.339844 " fill-opacity="1" fill-rule="nonzero"/></g><path fill="#ff6500" d="M 319.15625 174.585938 L 306.46875 174.585938 C 306.316406 174.585938 306.171875 174.558594 306.035156 174.5 C 305.894531 174.441406 305.773438 174.359375 305.664062 174.253906 C 305.558594 174.148438 305.476562 174.023438 305.417969 173.886719 C 305.363281 173.746094 305.332031 173.601562 305.332031 173.449219 L 305.332031 171.179688 C 305.332031 171.027344 305.363281 170.882812 305.417969 170.746094 C 305.476562 170.605469 305.558594 170.484375 305.664062 170.375 C 305.773438 170.269531 305.894531 170.1875 306.035156 170.128906 C 306.171875 170.074219 306.316406 170.042969 306.46875 170.042969 L 319.15625 170.042969 C 319.304688 170.042969 319.449219 170.074219 319.589844 170.128906 C 319.730469 170.1875 319.851562 170.269531 319.957031 170.375 C 320.066406 170.484375 320.148438 170.605469 320.203125 170.746094 C 320.261719 170.882812 320.292969 171.027344 320.292969 171.179688 L 320.292969 173.449219 C 320.292969 173.601562 320.261719 173.746094 320.203125 173.886719 C 320.148438 174.023438 320.066406 174.148438 319.957031 174.253906 C 319.851562 174.359375 319.730469 174.441406 319.589844 174.5 C 319.449219 174.558594 319.304688 174.585938 319.15625 174.585938 Z M 319.15625 174.585938 " fill-opacity="1" fill-rule="nonzero"/><g clip-path="url(#60de77296f)"><path fill="#ff6500" d="M 322.328125 180.25 L 303.296875 180.25 C 303.148438 180.25 303.003906 180.21875 302.863281 180.164062 C 302.722656 180.105469 302.601562 180.023438 302.496094 179.917969 C 302.386719 179.808594 302.304688 179.6875 302.25 179.546875 C 302.191406 179.410156 302.160156 179.265625 302.160156 179.113281 L 302.160156 176.84375 C 302.160156 176.691406 302.191406 176.546875 302.25 176.40625 C 302.304688 176.269531 302.386719 176.144531 302.496094 176.039062 C 302.601562 175.933594 302.722656 175.851562 302.863281 175.792969 C 303.003906 175.734375 303.148438 175.707031 303.296875 175.707031 L 322.328125 175.707031 C 322.476562 175.707031 322.621094 175.734375 322.761719 175.792969 C 322.898438 175.851562 323.023438 175.933594 323.128906 176.039062 C 323.234375 176.144531 323.316406 176.269531 323.375 176.40625 C 323.433594 176.546875 323.460938 176.691406 323.460938 176.84375 L 323.460938 179.113281 C 323.460938 179.265625 323.433594 179.410156 323.375 179.546875 C 323.316406 179.6875 323.234375 179.808594 323.128906 179.917969 C 323.023438 180.023438 322.898438 180.105469 322.761719 180.164062 C 322.621094 180.21875 322.476562 180.25 322.328125 180.25 Z M 322.328125 180.25 " fill-opacity="1" fill-rule="nonzero"/></g><path fill="#ff6500" d="M 319.15625 204.941406 L 306.46875 204.941406 C 306.316406 204.941406 306.171875 204.914062 306.035156 204.855469 C 305.894531 204.796875 305.773438 204.714844 305.664062 204.609375 C 305.558594 204.503906 305.476562 204.378906 305.417969 204.242188 C 305.363281 204.101562 305.332031 203.957031 305.332031 203.808594 L 305.332031 201.535156 C 305.332031 201.386719 305.363281 201.238281 305.417969 201.101562 C 305.476562 200.960938 305.558594 200.839844 305.664062 200.730469 C 305.773438 200.625 305.894531 200.542969 306.035156 200.484375 C 306.171875 200.429688 306.316406 200.398438 306.46875 200.398438 L 319.15625 200.398438 C 319.304688 200.398438 319.449219 200.429688 319.589844 200.484375 C 319.730469 200.542969 319.851562 200.625 319.957031 200.730469 C 320.066406 200.839844 320.148438 200.960938 320.203125 201.101562 C 320.261719 201.238281 320.292969 201.386719 320.292969 201.535156 L 320.292969 203.808594 C 320.292969 203.957031 320.261719 204.101562 320.203125 204.242188 C 320.148438 204.378906 320.066406 204.503906 319.957031 204.609375 C 319.851562 204.714844 319.730469 204.796875 319.589844 204.855469 C 319.449219 204.914062 319.304688 204.941406 319.15625 204.941406 Z M 319.15625 204.941406 " fill-opacity="1" fill-rule="nonzero"/><g clip-path="url(#bb9d0158eb)"><path fill="#ff6500" d="M 322.328125 199.277344 L 303.296875 199.277344 C 303.148438 199.277344 303.003906 199.25 302.863281 199.191406 C 302.722656 199.132812 302.601562 199.050781 302.496094 198.945312 C 302.386719 198.839844 302.304688 198.714844 302.25 198.578125 C 302.191406 198.4375 302.160156 198.292969 302.160156 198.140625 L 302.160156 195.871094 C 302.160156 195.71875 302.191406 195.574219 302.25 195.4375 C 302.304688 195.296875 302.386719 195.175781 302.496094 195.066406 C 302.601562 194.960938 302.722656 194.878906 302.863281 194.820312 C 303.003906 194.765625 303.148438 194.734375 303.296875 194.734375 L 322.328125 194.734375 C 322.476562 194.734375 322.621094 194.765625 322.761719 194.820312 C 322.898438 194.878906 323.023438 194.960938 323.128906 195.066406 C 323.234375 195.175781 323.316406 195.296875 323.375 195.4375 C 323.433594 195.574219 323.460938 195.71875 323.460938 195.871094 L 323.460938 198.140625 C 323.460938 198.292969 323.433594 198.4375 323.375 198.578125 C 323.316406 198.714844 323.234375 198.839844 323.128906 198.945312 C 323.023438 199.050781 322.898438 199.132812 322.761719 199.191406 C 322.621094 199.25 322.476562 199.277344 322.328125 199.277344 Z M 322.328125 199.277344 " fill-opacity="1" fill-rule="nonzero"/></g><path fill="#ff6500" d="M 315.417969 193.617188 L 309.980469 193.617188 C 309.902344 193.617188 309.867188 193.578125 309.867188 193.5 L 309.867188 181.496094 C 309.867188 181.421875 309.902344 181.382812 309.980469 181.382812 L 315.417969 181.382812 C 315.492188 181.382812 315.53125 181.421875 315.53125 181.496094 L 315.53125 193.5 C 315.53125 193.578125 315.492188 193.617188 315.417969 193.617188 Z M 315.417969 193.617188 " fill-opacity="1" fill-rule="nonzero"/></svg>