<svg width="226" height="191" viewBox="0 0 226 191" fill="none" xmlns="http://www.w3.org/2000/svg">
<mask id="mask0_84_972" style="mask-type:luminance" maskUnits="userSpaceOnUse" x="161" y="33" width="65" height="88">
<path d="M161.667 33.5H225.417V120.333H161.667V33.5Z" fill="white"/>
</mask>
<g mask="url(#mask0_84_972)">
<path d="M191.432 33.5313C190.828 33.5417 190.12 33.625 189.089 33.7657C184.828 34.3438 182.417 34.8959 182.271 35.3178C182.208 35.5157 181.708 35.6719 181.172 35.6719C179.599 35.6719 176.771 36.8386 175.734 37.9271C174.974 38.7136 174.745 39.3855 174.354 42.3386C174.281 42.7865 174.229 43.2448 174.193 43.7084C174.187 43.7553 174.182 43.8073 174.182 43.8542C173.948 45.8646 173.849 47.4011 173.953 48.6042C173.948 48.6198 173.953 48.6355 173.953 48.6511C173.937 52.7136 178.13 54.7917 181.641 55.2709C182.552 55.7292 183.349 55.7032 184.099 55.4792C184.875 55.5157 185.271 55.3282 186.135 54.8125C186.74 54.448 187.323 54.2084 187.943 54.099C188.563 54.573 189.385 54.3855 190.089 54.0053C191.427 53.8803 192.193 53.3125 192.594 52.1563L192.896 51.3021C194.297 54.1875 194.635 57.5938 195.25 60.7084C195.344 62.073 195.349 63.4323 195.307 64.8021C195.266 65.6823 195.198 66.7032 195.115 68.0053C195.031 69.2396 194.969 70.4271 194.896 71.6146C194.859 72.1928 194.823 72.7969 194.792 73.3178C194.766 73.75 194.74 74.1823 194.724 74.6146C194.719 74.7032 194.714 74.7917 194.708 74.8803C194.677 75.5105 194.63 76.3698 194.62 76.6875L194.563 78.3542C194.49 78.4063 194.406 78.4948 194.318 78.6407L193.62 77.8125C191.432 75.2292 189.958 74.4792 186.229 74.0625C182.917 73.698 180.828 74.5886 177.411 77.8594L174.547 80.5938L173.318 79.9636C171.964 79.2605 164.708 76.8698 163.937 76.8698C163.667 76.8698 163.453 77.0209 163.453 77.1928C163.453 77.3646 165.062 77.7761 166.63 78.2396C168.031 78.6511 169.193 79.2188 171.193 79.9844C171.99 80.2761 172.359 80.4011 172.812 80.573C173.224 81.2136 175.104 83.224 175.354 86.974C177.276 78.2188 182.354 74.4063 186.479 74.9167C187.417 75.099 187.302 75.0782 187.87 75.2136C190.672 75.8959 191.005 76.9584 193.052 78.3282C193.688 79.2396 193.885 79.6511 194.068 79.7917C194.953 81.0105 194.573 82.2969 196.573 85.2969C198.516 87.5625 199.682 89.599 201.87 90.6303C212.464 94.0313 221.203 86.1615 217.01 86.849C204.359 88.9115 197.307 64.6563 199.677 54.375C198.917 49.8698 205.75 59.4792 203.563 54.7657C202.271 51.4948 199.76 48.8334 198.193 45.75C196.464 42.4375 195.802 45.9896 194.297 47.6823C193.734 49.9323 190.589 47.3021 191.214 48.7657C191.646 49.25 192.016 49.7657 192.344 50.3021C192.172 50.75 191.781 51.7553 191.052 52.0261C190.682 52.3021 190.344 52.4636 190.021 52.5782C189.615 50.9011 188.375 48.5678 187.964 46.7657C184.37 43.1042 187.542 49.9063 187.031 51.8125C186.536 55.7813 184.964 50.6042 184.776 49.2709C184.01 46.8907 184.557 39.7865 180.5 43.0261C180.349 44.1615 182.396 48.3646 181.792 50.8542C181.958 54.823 180.609 50.323 180.557 48.8698C180 47.823 180.208 41.7292 177.755 39.3855C177.323 39.8438 176.75 40.1667 176.307 40.2344C176.297 40.1042 176.286 39.9636 176.26 39.7761C176.135 38.9115 176.286 38.448 176.849 37.9688C177.901 37.0834 179.911 36.6407 181.125 36.4063C181.703 36.4063 182.266 36.2605 182.375 36.0834C182.484 35.9063 182.911 35.6719 183.318 35.5678C183.729 35.4636 186.917 34.6303 189.641 34.3594C191.63 34.1667 192.563 34.2761 194.573 34.9219C198.813 36.2969 199.661 36.8698 200.594 39.0521C201.057 40.125 202.24 42.6771 203.229 44.7292C204.214 46.7813 205.021 48.5573 205.021 48.6823C205.021 48.8073 205.271 49.2032 205.583 49.5573C205.896 49.9115 207.354 52.0209 208.828 54.2448C210.297 56.474 212.578 59.8646 213.885 61.7865C215.193 63.7084 216.464 65.698 216.714 66.2032C216.958 66.7084 217.578 67.7813 218.078 68.5938C220.401 72.3386 222.198 77.5573 222.667 81.8907C222.849 83.6094 223.323 85.5313 223.755 86.3855C224.557 87.948 224.781 90.6407 224.151 91.0313C223.984 91.1302 223.849 91.3907 223.802 91.6511C223.047 92.6407 221.932 94.625 219.828 95.4011C212.604 98.3334 199.542 97.0209 196.813 95.4323C201.651 99.9063 203.057 100.203 203.432 104.099C199.109 104.547 181.578 104.964 178.604 100.354C178.807 96.6771 191.094 97.0573 192.698 88.0209C190.729 90.3073 184.505 100.552 171.823 91.573C170.167 90.3959 157.417 87.698 168.547 95.5261C166.812 98.2032 162.651 97.9688 162.661 101.099L162.708 119.25L162.766 119.172C162.865 120.099 164.568 118.641 166.406 115.068L168.177 111.63H168.292C172.312 111.896 176.234 112.953 180.203 113.573C181.974 113.667 183.74 113.63 185.5 113.479C185.573 113.474 185.646 113.464 185.719 113.458C185.932 113.438 186.141 113.422 186.354 113.401C186.453 113.391 186.557 113.38 186.661 113.365C187.724 113.25 188.854 113.094 190.12 112.87C196.151 111.828 204.146 108.458 209.661 104.641C211.594 103.307 214.448 101.615 215.995 100.88C219.776 99.099 223.729 95.224 224.63 92.4323C225.448 89.8959 225.406 88.3646 224.458 86.2136C224.021 85.2344 223.536 83.1823 223.375 81.6615C222.943 77.5677 221.094 72.2709 218.813 68.5938C218.313 67.7865 217.693 66.7084 217.448 66.2032C217.198 65.698 215.927 63.7084 214.62 61.7865C213.313 59.8646 211.036 56.474 209.563 54.25C208.083 52.0209 206.651 49.8698 206.375 49.4636C206.104 49.0625 204.932 46.7448 203.792 44.3178C200.266 36.8438 200.161 36.6615 198.594 35.7865C197.792 35.3386 196 34.6094 194.615 34.1667C193.177 33.7032 192.448 33.5157 191.432 33.5313ZM176.458 45.4063L176.771 49.6303C176.25 52.1875 175.516 46.2396 176.458 45.4063Z" fill="#FF6500"/>
</g>
<mask id="mask1_84_972" style="mask-type:luminance" maskUnits="userSpaceOnUse" x="0" y="33" width="65" height="88">
<path d="M0.583313 33.5H64.3333V120.333H0.583313V33.5Z" fill="white"/>
</mask>
<g mask="url(#mask1_84_972)">
<path d="M34.5625 33.5313C35.1719 33.5417 35.8802 33.625 36.9115 33.7657C41.1719 34.3438 43.5833 34.8959 43.724 35.3178C43.7917 35.5157 44.2917 35.6719 44.8281 35.6719C46.401 35.6719 49.2292 36.8386 50.2656 37.9271C51.026 38.7136 51.2552 39.3855 51.6458 42.3386C51.7188 42.7865 51.7708 43.2448 51.8073 43.7084C51.8125 43.7553 51.8177 43.8073 51.8177 43.8542C52.0521 45.8646 52.151 47.4011 52.0469 48.6042C52.0521 48.6198 52.0469 48.6355 52.0469 48.6511C52.0625 52.7136 47.8698 54.7917 44.3594 55.2709C43.4479 55.7292 42.651 55.7032 41.901 55.4792C41.125 55.5157 40.7292 55.3282 39.8646 54.8125C39.2604 54.448 38.6771 54.2084 38.0573 54.099C37.4375 54.573 36.6146 54.3855 35.9115 54.0053C34.5729 53.8803 33.8073 53.3125 33.4063 52.1563L33.1042 51.3021C31.7031 54.1875 31.3646 57.5938 30.75 60.7084C30.6563 62.073 30.651 63.4323 30.6927 64.8021C30.7344 65.6823 30.8021 66.7032 30.8854 68.0053C30.9688 69.2396 31.0313 70.4271 31.1042 71.6146C31.1406 72.1928 31.1771 72.7969 31.2083 73.3178C31.2344 73.75 31.2604 74.1823 31.276 74.6146C31.2813 74.7032 31.2865 74.7917 31.2917 74.8803C31.3229 75.5105 31.3698 76.3698 31.3802 76.6875L31.4375 78.3542C31.5104 78.4063 31.5937 78.4948 31.6823 78.6407L32.3802 77.8125C34.5677 75.2292 36.0417 74.4792 39.7708 74.0625C43.0833 73.698 45.1667 74.5886 48.5885 77.8594L51.4531 80.5938L52.6823 79.9636C54.0365 79.2605 61.2917 76.8698 62.0625 76.8698C62.3281 76.8698 62.5469 77.0209 62.5469 77.1928C62.5469 77.3646 60.9375 77.7761 59.3698 78.2396C57.9688 78.6511 56.8073 79.2188 54.8073 79.9844C54.0104 80.2761 53.6406 80.4011 53.1875 80.573C52.776 81.2136 50.8958 83.224 50.6458 86.974C48.724 78.2188 43.6458 74.4063 39.5208 74.9167C38.5833 75.099 38.6979 75.0782 38.1302 75.2136C35.3281 75.8959 34.9896 76.9584 32.9427 78.3282C32.3125 79.2396 32.1146 79.6511 31.9323 79.7917C31.0417 81.0105 31.4271 82.2969 29.4271 85.2969C27.4844 87.5625 26.3177 89.599 24.1302 90.6303C13.5365 94.0313 4.79687 86.1615 8.98958 86.849C21.6406 88.9115 28.6927 64.6563 26.3229 54.375C27.0833 49.8698 20.25 59.4792 22.4375 54.7657C23.7292 51.4948 26.2396 48.8334 27.8073 45.75C29.5365 42.4375 30.1979 45.9896 31.7031 47.6823C32.2656 49.9323 35.4115 47.3021 34.7865 48.7657C34.3542 49.25 33.9844 49.7657 33.6563 50.3021C33.8281 50.75 34.2188 51.7553 34.9427 52.0261C35.3177 52.3021 35.6563 52.4636 35.9792 52.5782C36.3802 50.9011 37.625 48.5678 38.0365 46.7657C41.6302 43.1042 38.4583 49.9063 38.9688 51.8125C39.4635 55.7813 41.0365 50.6042 41.2188 49.2709C41.9844 46.8907 41.4427 39.7865 45.4948 43.0261C45.651 44.1615 43.6042 48.3646 44.2083 50.8542C44.0417 54.823 45.3906 50.323 45.4375 48.8698C46 47.823 45.7917 41.7292 48.2448 39.3855C48.6771 39.8438 49.25 40.1667 49.6927 40.2344C49.7031 40.1042 49.7083 39.9636 49.7396 39.7761C49.8646 38.9115 49.7135 38.448 49.151 37.9688C48.099 37.0834 46.0885 36.6407 44.875 36.4063C44.2969 36.4063 43.7344 36.2605 43.625 36.0834C43.5156 35.9063 43.0885 35.6719 42.6823 35.5678C42.2708 35.4636 39.0833 34.6303 36.3594 34.3594C34.3698 34.1667 33.4375 34.2761 31.4271 34.9219C27.1823 36.2969 26.3385 36.8698 25.4063 39.0521C24.9427 40.125 23.7604 42.6771 22.7708 44.7292C21.7865 46.7813 20.9792 48.5573 20.9792 48.6823C20.9792 48.8073 20.7292 49.2032 20.4167 49.5573C20.1042 49.9115 18.6458 52.0209 17.1719 54.2448C15.7031 56.474 13.4219 59.8646 12.1146 61.7865C10.8073 63.7084 9.53646 65.698 9.28646 66.2032C9.04167 66.7084 8.42188 67.7813 7.92188 68.5938C5.59896 72.3386 3.80208 77.5573 3.33333 81.8907C3.14583 83.6094 2.67708 85.5313 2.23958 86.3855C1.44271 87.948 1.21875 90.6407 1.84896 91.0313C2.01563 91.1302 2.14583 91.3907 2.19792 91.6511C2.95313 92.6407 4.06771 94.625 6.17188 95.4011C13.3958 98.3334 26.4583 97.0209 29.1875 95.4323C24.349 99.9063 22.9427 100.203 22.5677 104.099C26.8906 104.547 44.4219 104.964 47.3958 100.354C47.1927 96.6771 34.9063 97.0573 33.3021 88.0209C35.2708 90.3073 41.4948 100.552 54.1771 91.573C55.8333 90.3959 68.5833 87.698 57.4531 95.5261C59.1875 98.2032 63.349 97.9688 63.3385 101.099L63.2917 119.25L63.2344 119.172C63.1354 120.099 61.4271 118.641 59.5938 115.068L57.8229 111.63H57.7083C53.6875 111.896 49.7656 112.953 45.7969 113.573C44.026 113.667 42.2604 113.63 40.5 113.479C40.4271 113.474 40.3542 113.464 40.2813 113.458C40.0677 113.438 39.8594 113.422 39.6458 113.401C39.5469 113.391 39.4427 113.38 39.3385 113.365C38.276 113.25 37.1458 113.094 35.875 112.87C29.849 111.828 21.8542 108.458 16.3385 104.641C14.4063 103.307 11.5521 101.615 10 100.88C6.22396 99.099 2.27083 95.224 1.36979 92.4323C0.552083 89.8959 0.588542 88.3646 1.54167 86.2136C1.97917 85.2344 2.45833 83.1823 2.625 81.6615C3.05729 77.5677 4.90625 72.2709 7.1875 68.5938C7.6875 67.7865 8.30729 66.7084 8.55208 66.2032C8.80208 65.698 10.0729 63.7084 11.3802 61.7865C12.6875 59.8646 14.9635 56.474 16.4375 54.25C17.9167 52.0209 19.349 49.8698 19.625 49.4636C19.8958 49.0625 21.0677 46.7448 22.2083 44.3178C25.7292 36.8438 25.8385 36.6615 27.4063 35.7865C28.2083 35.3386 30 34.6094 31.3854 34.1667C32.8229 33.7032 33.5521 33.5157 34.5677 33.5313H34.5625ZM49.5417 45.4063L49.2292 49.6303C49.75 52.1875 50.4844 46.2396 49.5417 45.4063Z" fill="#FF6500"/>
</g>
<mask id="mask2_84_972" style="mask-type:luminance" maskUnits="userSpaceOnUse" x="75" y="0" width="15" height="35">
<path d="M75 0.052124H89.6667V35H75V0.052124Z" fill="white"/>
</mask>
<g mask="url(#mask2_84_972)">
<path d="M89.2136 6.89067C89.2136 3.11462 86.1511 0.052124 82.2761 0.052124C78.7031 0.052124 75.6406 3.11462 75.5417 6.7865C75.5417 9.13546 76.6615 11.2761 78.5 12.5052C79.3177 13.1146 79.8281 14.0365 79.8281 14.9532V34.0365H84.9271V14.9532C84.9271 13.9323 85.3386 13.0157 86.1511 12.5052C87.9896 11.2761 89.2136 9.23962 89.2136 6.89067Z" fill="#232323"/>
</g>
<mask id="mask3_84_972" style="mask-type:luminance" maskUnits="userSpaceOnUse" x="136" y="0" width="15" height="35">
<path d="M136.333 0.052124H151V35H136.333V0.052124Z" fill="white"/>
</mask>
<g mask="url(#mask3_84_972)">
<path d="M150.448 6.89067C150.448 3.11462 147.385 0.052124 143.609 0.052124C140.036 0.052124 136.974 3.11462 136.875 6.7865C136.875 9.13546 137.995 11.2761 139.833 12.5052C140.651 13.1146 141.161 14.0365 141.161 14.9532V34.0365H146.26V14.9532C146.26 13.9323 146.672 13.0157 147.484 12.5052C149.219 11.2761 150.448 9.23962 150.448 6.89067Z" fill="#232323"/>
</g>
<path d="M131.057 38.2187C119.729 41.5885 106.974 41.8958 94.9323 38.2187C93.5 37.8125 91.9688 38.4218 91.3594 39.75C88.9115 44.75 87.4792 50.9739 87.4792 57.9166C87.4792 61.6927 98.9115 64.7552 112.995 64.7552C127.078 64.7552 138.505 61.6927 138.505 57.9166C138.505 51.0781 137.078 44.75 134.63 39.75C134.016 38.4218 132.484 37.8125 131.057 38.2187ZM100.953 57.8125C98.0938 58.2239 95.6459 55.7708 96.0521 52.9166C96.3594 51.0781 97.7865 49.651 99.625 49.3437C102.479 48.9375 104.932 51.3854 104.521 54.2396C104.115 56.0781 102.688 57.6093 100.953 57.8125ZM126.359 57.8125C123.505 58.2239 121.057 55.7708 121.464 52.9166C121.771 51.0781 123.198 49.651 125.036 49.3437C127.891 48.9375 130.344 51.3854 129.932 54.2396C129.625 56.0781 128.198 57.6093 126.359 57.8125Z" fill="#232323"/>
<mask id="mask4_84_972" style="mask-type:luminance" maskUnits="userSpaceOnUse" x="72" y="12" width="83" height="71">
<path d="M72.1719 12.3334H154.172V82.0521H72.1719V12.3334Z" fill="white"/>
</mask>
<g mask="url(#mask4_84_972)">
<path d="M112.995 13.625C90.4375 13.625 72.1719 33.4219 72.1719 57.8125C72.1719 71.0781 90.4375 81.6927 112.995 81.6927C135.547 81.6927 153.813 71.0781 153.813 57.9167C153.813 33.4219 135.547 13.625 112.995 13.625ZM112.995 74.8542C92.9896 74.8542 79.0104 65.875 79.0104 57.8125C79.0104 37.1979 94.2135 20.4635 112.995 20.4635C131.771 20.4635 146.974 37.1979 146.974 57.9167C146.974 65.9792 132.995 74.8542 112.995 74.8542Z" fill="#232323"/>
</g>
<path d="M29.9071 128.669H47.6987V133.96H36.9696V137.731H46.1779V142.794H36.9696V150.689H29.9071V128.669Z" fill="#232323"/>
<path d="M55.0196 150.689V128.669H62.0821V150.689H55.0196Z" fill="#232323"/>
<path d="M83.2778 134.314V150.689H76.1945V134.314H68.9653V128.669H90.4862V134.314H83.2778Z" fill="#232323"/>
<path d="M112.9 150.689L103.65 140.002V150.689H97.1712V128.669H103.338L112.588 139.523V128.669H119.088V150.689H112.9Z" fill="#232323"/>
<path d="M127.283 128.669H146.325V133.96H134.346V137.002H144.596V142.044H134.346V145.419H146.533V150.689H127.283V128.669Z" fill="#232323"/>
<path d="M163.093 128.294C165.895 128.294 168.203 128.866 170.01 130.002C171.828 131.143 172.765 132.83 172.822 135.064V135.46H166.197V135.335C166.197 134.7 165.958 134.163 165.489 133.731C165.015 133.304 164.302 133.085 163.343 133.085C162.395 133.085 161.677 133.226 161.177 133.502C160.677 133.783 160.427 134.122 160.427 134.523C160.427 135.106 160.765 135.538 161.447 135.814C162.125 136.096 163.224 136.377 164.739 136.669C166.515 137.033 167.974 137.413 169.114 137.814C170.25 138.205 171.244 138.851 172.093 139.752C172.953 140.643 173.395 141.856 173.427 143.398C173.427 145.997 172.541 147.929 170.781 149.189C169.015 150.439 166.661 151.064 163.718 151.064C160.286 151.064 157.614 150.497 155.697 149.356C153.791 148.205 152.843 146.163 152.843 143.231H159.531C159.531 144.346 159.812 145.085 160.385 145.46C160.968 145.835 161.869 146.023 163.093 146.023C163.979 146.023 164.718 145.929 165.302 145.731C165.895 145.538 166.197 145.143 166.197 144.544C166.197 144.018 165.869 143.622 165.218 143.356C164.562 143.08 163.5 142.794 162.031 142.502C160.239 142.116 158.75 141.71 157.572 141.294C156.406 140.877 155.385 140.189 154.51 139.231C153.635 138.273 153.197 136.976 153.197 135.335C153.197 132.919 154.125 131.143 155.989 130.002C157.864 128.866 160.229 128.294 163.093 128.294Z" fill="#232323"/>
<path d="M189.653 128.294C192.455 128.294 194.763 128.866 196.57 130.002C198.388 131.143 199.325 132.83 199.383 135.064V135.46H192.758V135.335C192.758 134.7 192.518 134.163 192.049 133.731C191.575 133.304 190.862 133.085 189.903 133.085C188.955 133.085 188.237 133.226 187.737 133.502C187.237 133.783 186.987 134.122 186.987 134.523C186.987 135.106 187.325 135.538 188.008 135.814C188.685 136.096 189.784 136.377 191.299 136.669C193.075 137.033 194.534 137.413 195.674 137.814C196.81 138.205 197.804 138.851 198.653 139.752C199.513 140.643 199.955 141.856 199.987 143.398C199.987 145.997 199.101 147.929 197.341 149.189C195.575 150.439 193.221 151.064 190.278 151.064C186.846 151.064 184.174 150.497 182.258 149.356C180.351 148.205 179.403 146.163 179.403 143.231H186.091C186.091 144.346 186.372 145.085 186.945 145.46C187.528 145.835 188.429 146.023 189.653 146.023C190.539 146.023 191.278 145.929 191.862 145.731C192.455 145.538 192.758 145.143 192.758 144.544C192.758 144.018 192.429 143.622 191.778 143.356C191.122 143.08 190.06 142.794 188.591 142.502C186.799 142.116 185.31 141.71 184.133 141.294C182.966 140.877 181.945 140.189 181.07 139.231C180.195 138.273 179.758 136.976 179.758 135.335C179.758 132.919 180.685 131.143 182.549 130.002C184.424 128.866 186.789 128.294 189.653 128.294Z" fill="#232323"/>
<path d="M116.741 190.72V162.262H95.3663V190.72H102.491V182.783H109.616V190.72H116.741ZM109.616 176.304H102.491V168.783H109.616V176.304Z" fill="#FF6500"/>
<path d="M130.688 190.72V162.262H123.563V190.72H130.688Z" fill="#FF6500"/>
<mask id="mask5_84_972" style="mask-type:luminance" maskUnits="userSpaceOnUse" x="124" y="15" width="18" height="15">
<path d="M124.333 15.7917H141.667V29.6667H124.333V15.7917Z" fill="white"/>
</mask>
<g mask="url(#mask5_84_972)">
<path d="M125.615 25.7344C124.979 25.2448 124.792 24.3542 125.203 23.6407C125.646 22.8542 126.641 22.5834 127.427 23.0313C131.068 25.1146 133.828 25.6719 135.406 24.6615C137.505 23.3073 137.63 19.1875 137.5 17.7084C137.422 16.8125 138.078 16.0209 138.979 15.9375C139.88 15.8594 140.677 16.5209 140.745 17.4063C140.776 17.7084 141.375 24.6927 137.177 27.4063C134.469 29.1407 130.646 28.625 125.807 25.8646C125.74 25.823 125.672 25.7813 125.615 25.7344Z" fill="#FF6500"/>
</g>
<mask id="mask6_84_972" style="mask-type:luminance" maskUnits="userSpaceOnUse" x="122" y="28" width="15" height="19">
<path d="M122.953 28.3334H136.333V47H122.953V28.3334Z" fill="white"/>
</mask>
<g mask="url(#mask6_84_972)">
<path d="M129.635 46.2968C128.974 45.7864 128.812 44.8541 129.255 44.1406C131.729 40.2239 132.495 37.1979 131.458 35.3698C129.917 32.625 124.719 32.7135 124.656 32.7083C123.755 32.7448 123.005 32.0156 122.984 31.1198C122.964 30.2187 123.667 29.4739 124.568 29.4531C124.865 29.4323 131.766 29.3489 134.286 33.75C135.984 36.7396 135.214 40.8125 132.021 45.8854C131.531 46.6406 130.526 46.8698 129.766 46.3854C129.719 46.3593 129.672 46.3281 129.635 46.2968Z" fill="#FF6500"/>
</g>
<path d="M145.865 33.2187C144.734 32.3385 143.974 31.2656 143.563 29.9948C142.026 25.2135 146.313 19.8646 146.813 19.2708C147.37 18.5937 148.365 18.4844 149.063 19.0312C149.073 19.0364 149.083 19.0469 149.104 19.0625C149.797 19.6354 149.891 20.6562 149.318 21.3489C148.297 22.5937 145.823 26.375 146.667 29C147.125 30.3958 148.599 31.4323 151.005 32.0677L156.01 32.8906C156.906 33.0364 157.5 33.8802 157.354 34.7656C157.208 35.6562 156.37 36.2604 155.484 36.1094L150.333 35.2604C148.479 34.7812 146.984 34.0937 145.865 33.2187Z" fill="#FF6500"/>
<mask id="mask7_84_972" style="mask-type:luminance" maskUnits="userSpaceOnUse" x="135" y="36" width="20" height="15">
<path d="M135 36.3334H155V50.7917H135V36.3334Z" fill="white"/>
</mask>
<g mask="url(#mask7_84_972)">
<path d="M136.339 50.5678C135.766 50.1199 135.552 49.3126 135.854 48.6095L139.203 41.1042C139.823 39.6251 140.979 38.5261 142.505 37.948C146.823 36.3334 153.042 39.2397 153.734 39.573C154.563 39.9532 154.88 40.9376 154.484 41.7449C154.099 42.5574 153.12 42.9011 152.307 42.5053C150.771 41.7657 146.203 40.0417 143.651 41.0105C142.953 41.2709 142.484 41.7188 142.198 42.4063L138.839 49.948C138.464 50.7657 137.5 51.1355 136.682 50.7657C136.557 50.7136 136.443 50.6459 136.339 50.5678Z" fill="#FF6500"/>
</g>
<mask id="mask8_84_972" style="mask-type:luminance" maskUnits="userSpaceOnUse" x="68" y="81" width="46" height="28">
<path d="M68.5833 81.7084H113.667V108.333H68.5833V81.7084Z" fill="white"/>
</mask>
<g mask="url(#mask8_84_972)">
<path d="M70.2916 81.8282C70.2916 81.8282 70.3541 82.0834 70.4739 82.5625C70.5833 83.0313 70.7396 83.724 70.9427 84.599C71.3489 86.3386 71.8541 88.7917 72.6094 91.5938C72.7969 92.2969 73.0104 93.0157 73.2344 93.75C73.3541 94.1198 73.4844 94.4844 73.5937 94.8646C73.7239 95.2344 73.8385 95.6198 73.9635 96C74.4844 97.5209 74.9687 99.1667 75.8333 100.745C76.6875 102.313 78.0729 103.703 79.8333 104.453C80.2812 104.62 80.7239 104.792 81.1927 104.906C81.6614 104.995 82.125 105.125 82.6094 105.135L83.3333 105.177C83.3802 105.182 83.4739 105.188 83.4844 105.182L84.0625 105.167L85.6041 105.099C86.1302 105.083 86.6146 105.005 87.0989 104.948L88.5469 104.781C89.026 104.698 89.5104 104.62 89.9844 104.552C90.4635 104.49 90.9323 104.427 91.3958 104.328C91.8594 104.245 92.3177 104.161 92.776 104.078C93.2344 103.984 93.6719 103.849 94.1146 103.74C95.0052 103.542 95.8229 103.182 96.6562 102.927C97.0573 102.771 97.4479 102.583 97.8437 102.427C98.0364 102.349 98.2344 102.271 98.4271 102.193C98.6146 102.099 98.7969 102 98.9896 101.917C99.3594 101.734 99.7291 101.563 100.094 101.385C100.448 101.193 100.797 100.995 101.141 100.807C101.318 100.708 101.49 100.62 101.661 100.526C101.828 100.422 101.99 100.318 102.156 100.214C102.479 100.005 102.802 99.7969 103.125 99.6042C103.432 99.3855 103.734 99.1667 104.026 98.9532C104.323 98.7344 104.635 98.5469 104.901 98.3073C106.016 97.4271 107.01 96.5365 107.875 95.7084C108.312 95.2865 108.714 94.8855 109.089 94.5209C109.448 94.1355 109.781 93.7813 110.099 93.4636C110.255 93.3073 110.406 93.1511 110.542 93.0105C110.672 92.8594 110.797 92.724 110.917 92.5938C111.156 92.3334 111.359 92.1198 111.526 91.9375C111.865 91.5886 112.052 91.4011 112.052 91.4011L112.432 91.599C112.432 91.599 112.37 91.8594 112.234 92.3334C112.167 92.573 112.078 92.8698 111.974 93.2136C111.875 93.5625 111.729 93.948 111.552 94.3802C111.385 94.8125 111.182 95.2865 110.958 95.8073C110.714 96.3125 110.422 96.849 110.109 97.4271C109.464 98.5677 108.62 99.8073 107.542 101.057C107.005 101.688 106.375 102.281 105.729 102.911C105.391 103.203 105.031 103.49 104.667 103.781C104.484 103.927 104.302 104.073 104.115 104.219C103.922 104.359 103.719 104.49 103.516 104.62C103.109 104.88 102.698 105.141 102.281 105.406C101.844 105.641 101.391 105.854 100.937 106.078C100.708 106.193 100.474 106.297 100.245 106.401C100.005 106.49 99.7604 106.578 99.5208 106.667C99.0364 106.844 98.5416 107.01 98.0416 107.167C97.5364 107.297 97.026 107.411 96.5104 107.531C95.9948 107.667 95.4739 107.734 94.9479 107.802C94.4219 107.875 93.8958 107.964 93.3646 108.01C92.8333 108.042 92.3021 108.068 91.7656 108.099C91.2291 108.146 90.6979 108.12 90.1614 108.094C89.6302 108.063 89.0937 108.031 88.5625 107.984C88.026 107.901 87.4948 107.818 86.9531 107.729C86.4219 107.641 85.8854 107.563 85.3958 107.432L83.8906 107.083L83.5156 107.005L83.3281 106.964C83.2083 106.948 83.1823 106.927 83.1041 106.911L82.3177 106.703C82.0573 106.641 81.7969 106.578 81.5469 106.479L80.7864 106.224C80.2812 106.057 79.8021 105.823 79.3073 105.635C77.401 104.729 75.6302 103.583 74.0677 102.182C72.5312 100.781 71.2604 99.1198 70.4791 97.3907C70.2708 96.9636 70.1146 96.5261 69.9479 96.099C69.8021 95.6667 69.6719 95.2344 69.5625 94.8073C69.4583 94.3802 69.3437 93.9636 69.2656 93.5469C69.1927 93.1355 69.1094 92.7292 69.0521 92.3282C68.5833 89.1302 68.8021 86.4636 69.1198 84.6355C69.4479 82.8073 69.8646 81.8021 69.8646 81.8021L70.2916 81.8282Z" fill="#FF6500"/>
</g>
<mask id="mask9_84_972" style="mask-type:luminance" maskUnits="userSpaceOnUse" x="112" y="81" width="46" height="28">
<path d="M112.333 81.7084H157.583V108.333H112.333V81.7084Z" fill="white"/>
</mask>
<g mask="url(#mask9_84_972)">
<path d="M156.198 81.8021C156.198 81.8021 156.609 82.8073 156.937 84.6355C157.26 86.4636 157.479 89.1302 157.01 92.3282C156.953 92.7292 156.87 93.1355 156.797 93.5469C156.714 93.9636 156.599 94.3802 156.5 94.8073C156.385 95.2344 156.255 95.6667 156.115 96.099C155.943 96.5261 155.786 96.9636 155.583 97.3907C154.797 99.1198 153.531 100.781 151.99 102.182C150.432 103.583 148.661 104.729 146.755 105.635C146.26 105.823 145.781 106.057 145.276 106.224L144.516 106.479C144.26 106.578 144.005 106.641 143.74 106.703L142.958 106.911C142.88 106.927 142.849 106.948 142.734 106.964L142.547 107.005L142.167 107.083L140.667 107.432C140.172 107.563 139.641 107.641 139.104 107.729C138.568 107.818 138.036 107.901 137.5 107.984C136.964 108.031 136.432 108.063 135.901 108.094C135.365 108.12 134.828 108.146 134.297 108.099C133.76 108.068 133.229 108.042 132.698 108.01C132.167 107.964 131.641 107.875 131.115 107.802C130.589 107.734 130.062 107.667 129.552 107.531C129.036 107.411 128.521 107.297 128.016 107.167C127.521 107.01 127.026 106.844 126.542 106.667C126.297 106.578 126.057 106.49 125.818 106.401C125.583 106.297 125.354 106.193 125.125 106.078C124.672 105.854 124.219 105.641 123.781 105.406C123.365 105.141 122.953 104.88 122.542 104.62C122.339 104.49 122.141 104.359 121.948 104.219C121.76 104.073 121.578 103.927 121.396 103.781C121.031 103.49 120.672 103.203 120.328 102.911C119.687 102.281 119.052 101.688 118.521 101.057C117.443 99.8073 116.599 98.5677 115.948 97.4271C115.635 96.849 115.349 96.3125 115.099 95.8073C114.875 95.2865 114.677 94.8125 114.505 94.3802C114.328 93.948 114.187 93.5625 114.089 93.2136C113.984 92.8698 113.896 92.573 113.823 92.3334C113.693 91.8594 113.63 91.599 113.63 91.599L114.005 91.4011C114.005 91.4011 114.198 91.5886 114.536 91.9375C114.703 92.1198 114.906 92.3334 115.146 92.5938C115.266 92.724 115.391 92.8594 115.516 93.0105C115.656 93.1511 115.802 93.3073 115.964 93.4636C116.276 93.7813 116.609 94.1355 116.974 94.5209C117.344 94.8855 117.75 95.2865 118.182 95.7084C119.052 96.5365 120.047 97.4271 121.161 98.3073C121.427 98.5469 121.734 98.7344 122.036 98.9532C122.328 99.1667 122.63 99.3855 122.937 99.6042C123.26 99.7969 123.583 100.005 123.906 100.214C124.068 100.318 124.234 100.422 124.396 100.526C124.568 100.62 124.745 100.708 124.917 100.807C125.26 100.995 125.609 101.193 125.964 101.385C126.333 101.563 126.703 101.734 127.073 101.917C127.26 102 127.448 102.099 127.63 102.193C127.828 102.271 128.021 102.349 128.219 102.427C128.615 102.583 129 102.771 129.406 102.927C130.234 103.182 131.057 103.542 131.948 103.74C132.391 103.849 132.828 103.984 133.281 104.078C133.74 104.161 134.203 104.245 134.667 104.328C135.125 104.427 135.599 104.49 136.078 104.552C136.552 104.62 137.031 104.698 137.516 104.781L138.964 104.948C139.448 105.005 139.932 105.083 140.458 105.099L142 105.167L142.385 105.177L142.573 105.182C142.583 105.188 142.682 105.182 142.729 105.177L143.448 105.135C143.937 105.125 144.396 104.995 144.87 104.906C145.339 104.792 145.781 104.62 146.229 104.453C147.984 103.703 149.375 102.313 150.229 100.745C151.094 99.1667 151.573 97.5209 152.094 96C152.219 95.6198 152.339 95.2344 152.464 94.8646C152.578 94.4844 152.703 94.1198 152.828 93.75C153.052 93.0157 153.266 92.2969 153.448 91.5938C154.208 88.7917 154.714 86.3386 155.115 84.599C155.323 83.724 155.479 83.0313 155.589 82.5625C155.708 82.0834 155.771 81.8282 155.771 81.8282L156.198 81.8021Z" fill="#FF6500"/>
</g>
<mask id="mask10_84_972" style="mask-type:luminance" maskUnits="userSpaceOnUse" x="75" y="100" width="80" height="25">
<path d="M75 100.333H155V124.708H75V100.333Z" fill="white"/>
</mask>
<g mask="url(#mask10_84_972)">
<path d="M76.2812 102.74C76.3073 105.724 76.3854 108.708 76.6927 111.63C76.7344 111.995 76.7916 112.349 76.8437 112.708C76.8906 113.078 76.9323 113.412 77.0104 113.787L77.4219 115.99L78.2344 120.391L79.0416 124.787L79.7969 129.203C80.0416 130.682 80.3281 132.13 80.5208 133.651C80.7396 135.156 80.9583 136.688 81.1198 138.099L82.3437 146.927C82.5364 148.401 82.7291 149.875 82.9427 151.333C83.0521 152.047 83.1458 152.823 83.2708 153.443L83.2812 153.505V153.531L83.276 153.5C83.2656 153.458 83.2396 153.417 83.2083 153.385L83.1562 153.339C83.1458 153.333 83.0989 153.276 83.1302 153.313L83.1562 153.344L83.2239 153.432L83.5573 153.828L84.2812 154.688C86.1927 157 88.0625 159.359 89.8541 161.766C90.7552 162.969 91.6406 164.188 92.4948 165.427C93.3541 166.662 94.1979 167.912 94.9739 169.208C95.75 170.51 96.4948 171.839 97.026 173.313C97.0885 173.5 97.1562 173.688 97.2083 173.875L97.3385 174.427C97.3594 174.516 97.3802 174.62 97.4062 174.688C97.4375 174.74 97.4531 174.792 97.4791 174.844L97.5937 175.031L97.7344 175.208C98.1562 175.667 98.776 176.021 99.4166 176.302C100.719 176.865 102.161 177.198 103.609 177.417C105.057 177.635 106.526 177.776 108 177.823C110.948 177.932 113.906 177.781 116.828 177.438C119.745 177.089 122.646 176.542 125.375 175.677C126.729 175.245 128.052 174.714 129.151 174.026C129.703 173.688 130.177 173.297 130.495 172.901C130.714 172.641 131.099 171.823 131.422 171.203C132.771 168.563 134.115 165.859 135.635 163.219C137.161 160.578 138.854 157.979 140.995 155.62C142.062 154.443 143.26 153.328 144.651 152.401C146.021 151.453 147.62 150.714 149.339 150.339L147.932 151.943C148.104 149.781 148.312 147.625 148.521 145.469C148.734 143.318 148.948 141.162 149.198 139.005L149.573 135.776C149.708 134.693 149.807 133.63 149.964 132.537L150.443 129.266L150.687 127.635L150.823 126.875L150.937 126.115C151.229 124.026 151.432 121.88 151.635 119.74C151.828 117.599 151.979 115.453 152.115 113.302C152.234 111.156 152.339 109.005 152.354 106.859C152.354 105.787 152.359 104.714 152.286 103.646C152.25 103.115 152.214 102.583 152.13 102.057C152.047 101.542 151.953 101.01 151.714 100.578L151.99 100.385C152.344 100.87 152.505 101.412 152.672 101.938C152.833 102.474 152.943 103.01 153.047 103.552C153.24 104.63 153.385 105.719 153.495 106.802C153.714 108.979 153.823 111.156 153.885 113.328C153.953 115.505 153.953 117.682 153.917 119.859C153.891 122.042 153.812 124.208 153.63 126.422L153.552 127.271L153.448 128.12L153.307 129.708L152.995 132.875C152.891 133.927 152.828 135.021 152.745 136.089L152.5 139.318L151.49 152.234L151.385 153.552L150.083 153.833C147.682 154.354 145.453 155.979 143.536 157.995C141.604 160.005 139.969 162.412 138.427 164.88C136.885 167.365 135.495 169.974 134.042 172.604L133.479 173.589C133.333 173.854 133.021 174.391 132.698 174.755C132.042 175.49 131.302 176.011 130.568 176.427C129.089 177.245 127.578 177.719 126.068 178.115C123.042 178.859 120.01 179.172 116.979 179.318C113.953 179.448 110.927 179.385 107.917 179.12C106.411 178.979 104.906 178.807 103.417 178.521C101.927 178.219 100.432 177.88 99 177.245C98.2864 176.917 97.5729 176.521 96.9844 175.87L96.7812 175.609L96.5989 175.318C96.5416 175.208 96.4896 175.083 96.4427 174.964C96.4114 174.859 96.3906 174.781 96.3646 174.688L96.2344 174.146C96.1875 173.984 96.125 173.818 96.0677 173.651C95.8281 172.984 95.5156 172.328 95.1614 171.693C94.8073 171.052 94.4271 170.422 94.0156 169.818C93.1979 168.589 92.3229 167.396 91.401 166.234C90.4791 165.083 89.5208 163.948 88.5416 162.833C86.5729 160.609 84.5312 158.453 82.4583 156.323L81.6823 155.521L81.2656 155.083L81.151 154.964L81.1302 154.938C81.1458 154.958 81.0833 154.88 81.0677 154.854C81.0312 154.797 81 154.74 80.9687 154.677C80.9062 154.557 80.8541 154.427 80.8073 154.297L80.776 154.203L80.7656 154.162L80.7448 154.083C80.5208 153.245 80.3854 152.552 80.2344 151.797C79.9479 150.313 79.6927 148.839 79.4375 147.359C78.9583 144.401 78.5469 141.443 78.2135 138.448C78.0625 136.891 77.8854 135.464 77.7031 134.01L77.1458 129.594L76.5781 125.156L76.0469 120.698L75.7812 118.474L75.3437 114.016C75.2604 113.255 75.2448 112.479 75.2239 111.719C75.2344 110.193 75.2708 108.688 75.4166 107.188C75.5364 105.688 75.7187 104.198 75.9479 102.714L76.2812 102.74Z" fill="#FF6500"/>
</g>
<path d="M88.5312 110.745C88.5521 110.688 88.6406 110.703 88.6823 110.714C88.7396 110.724 88.7917 110.74 88.8438 110.755C88.9427 110.787 89.0365 110.833 89.1354 110.875C89.3281 110.964 89.5104 111.057 89.6927 111.151C90.0625 111.349 90.4167 111.557 90.7656 111.776C91.4583 112.214 92.1302 112.677 92.7865 113.151C93.4479 113.63 94.0937 114.12 94.724 114.62C95.3594 115.125 95.974 115.635 96.5885 116.167L95.4635 115.662C95.8333 115.63 96.2083 115.609 96.5885 115.583L97.7135 115.505C98.4635 115.469 99.2135 115.412 99.9635 115.385C100.714 115.359 101.464 115.313 102.208 115.297C102.958 115.281 103.703 115.234 104.448 115.229L106.677 115.177C107.417 115.167 108.151 115.141 108.875 115.12C109.594 115.104 110.323 115.063 110.932 115.005L111.276 114.969C111.286 114.969 111.339 114.958 111.313 114.969L111.25 115L111.24 115.01L111.229 115.016L111.172 115.047C111.089 115.089 111.01 115.141 110.943 115.203C110.906 115.234 110.875 115.266 110.844 115.297L110.797 115.349L110.776 115.375L110.813 115.339L110.865 115.292L110.969 115.193L111.188 114.99C111.255 114.927 111.375 114.839 111.469 114.771C111.505 114.745 111.599 114.688 111.693 114.635L111.833 114.557L111.901 114.526L112.042 114.469C112.141 114.432 112.245 114.406 112.349 114.38L112.505 114.349C112.568 114.344 112.703 114.333 112.802 114.333C113.016 114.333 113.234 114.37 113.432 114.432C113.677 114.516 113.938 114.662 114.141 114.839C114.193 114.885 114.24 114.932 114.286 114.979L114.375 115.083C114.438 115.162 114.49 115.24 114.542 115.323C114.594 115.406 114.635 115.49 114.672 115.578C114.703 115.646 114.714 115.682 114.734 115.74C114.766 115.839 114.792 115.948 114.813 116.052C114.823 116.12 114.828 116.182 114.833 116.245C114.854 116.745 114.807 116.854 114.745 117.162L110.979 116.563L111.203 114.953L111.448 113.339C111.615 112.26 111.792 111.182 111.974 110.109L112.547 106.875C112.635 106.333 112.729 105.797 112.813 105.255C112.849 104.984 112.891 104.714 112.917 104.443C112.938 104.167 112.964 103.896 112.911 103.62C113.115 103.833 113.224 104.109 113.339 104.375C113.448 104.641 113.542 104.917 113.62 105.193C113.786 105.745 113.911 106.297 114.021 106.854C114.135 107.406 114.224 107.964 114.302 108.521C114.385 109.078 114.443 109.635 114.51 110.188C114.62 111.302 114.693 112.412 114.745 113.521L114.792 115.188V116.854L111.026 116.255C111 116.375 110.979 116.297 110.984 116.609C110.99 116.651 110.995 116.688 111 116.734C111.016 116.818 111.036 116.901 111.063 116.979C111.078 117.026 111.089 117.047 111.109 117.109C111.141 117.182 111.177 117.26 111.224 117.333C111.266 117.406 111.318 117.474 111.37 117.542L111.453 117.63C111.49 117.672 111.536 117.719 111.583 117.76C111.766 117.927 112.005 118.057 112.229 118.13C112.401 118.188 112.599 118.224 112.792 118.224C112.88 118.224 113 118.214 113.052 118.203C113.094 118.198 113.135 118.193 113.177 118.188C113.26 118.172 113.339 118.146 113.417 118.115L113.563 118.057L113.641 118.016C113.693 117.99 113.745 117.948 113.745 117.953L113.802 117.917L113.818 117.906L113.729 118.016L113.682 118.068L113.677 118.073C113.646 118.109 113.719 118.026 113.703 118.042L113.667 118.083L113.594 118.151C113.547 118.198 113.49 118.245 113.438 118.287C113.328 118.375 113.214 118.453 113.094 118.526L113.005 118.578L112.964 118.594L112.885 118.63C112.776 118.677 112.672 118.724 112.563 118.76C112.443 118.807 112.406 118.813 112.323 118.839C112.01 118.932 111.802 118.969 111.557 119.026C111.12 119.109 110.698 119.162 110.302 119.208C109.896 119.255 109.505 119.292 109.109 119.323C108.719 119.359 108.333 119.375 107.943 119.396L106.786 119.443C106.021 119.474 105.255 119.469 104.49 119.469C103.729 119.479 102.969 119.443 102.208 119.422C101.448 119.406 100.688 119.349 99.9271 119.313C99.1719 119.271 98.4115 119.193 97.6563 119.135L96.5156 119.016C96.1406 118.974 95.7604 118.943 95.3802 118.891L94.5469 118.771L94.25 118.385C93.7708 117.76 93.2813 117.13 92.8073 116.49C92.3229 115.854 91.8542 115.208 91.3854 114.557C90.9167 113.906 90.4531 113.255 89.9948 112.594L89.2969 111.604C89.1823 111.443 89.0677 111.276 88.9427 111.12C88.8802 111.042 88.8177 110.969 88.7552 110.891C88.6875 110.833 88.6198 110.714 88.5312 110.745Z" fill="#FF6500"/>
<mask id="mask11_84_972" style="mask-type:luminance" maskUnits="userSpaceOnUse" x="91" y="116" width="24" height="9">
<path d="M91 116.333H115V124.708H91V116.333Z" fill="white"/>
</mask>
<g mask="url(#mask11_84_972)">
<path d="M94.7084 117.359C94.3281 118.26 94.0573 119.172 93.8438 120.073C93.7969 120.297 93.7604 120.526 93.7136 120.75C93.6667 120.974 93.6459 121.198 93.6146 121.422C93.5781 121.641 93.5677 121.865 93.5469 122.089C93.5261 122.307 93.5104 122.526 93.5209 122.745C93.5261 122.964 93.5 123.182 93.5209 123.396L93.5677 124.031C93.5886 124.24 93.6354 124.448 93.6615 124.656L93.7084 124.964L93.7865 125.26C93.8438 125.458 93.8854 125.656 93.9479 125.854L94.1563 126.422C94.2136 126.615 94.3073 126.792 94.3959 126.974C94.4896 127.151 94.5781 127.328 94.6563 127.51L93.6667 126.589C94.3594 126.771 95.0625 126.938 95.7552 127.125L97.8386 127.682L99.9115 128.255L101.979 128.854L106.073 130.063L108.094 130.646L109.078 130.912L110 131.13C110.109 131.151 110.219 131.172 110.333 131.193L110.37 131.203L110.38 131.208C110.073 131.208 110.302 131.208 110.234 131.208H110.464L110.396 131.214C110.297 131.219 110.198 131.234 110.094 131.266C109.995 131.292 109.901 131.333 109.813 131.385L109.781 131.401C109.406 131.646 109.448 131.615 109.495 131.589C109.542 131.557 109.516 131.573 109.495 131.589L109.51 131.578L109.536 131.557C109.724 131.422 109.38 131.641 109.297 131.813C109.271 131.859 109.276 131.854 109.281 131.849C109.281 131.844 109.281 131.844 109.281 131.844L109.286 131.833L109.307 131.813C109.354 131.724 109.406 131.63 109.469 131.5C109.714 130.99 109.938 130.323 110.146 129.682C110.578 128.38 110.964 127.01 111.354 125.646L111.922 123.583L112.469 121.51C112.646 120.813 112.823 120.12 112.974 119.417C113.12 118.714 113.286 118.01 113.286 117.276C113.635 117.943 113.776 118.703 113.906 119.438C114.026 120.177 114.094 120.922 114.141 121.662C114.224 123.146 114.219 124.625 114.13 126.104C114.047 127.583 113.891 129.052 113.635 130.547C113.49 131.302 113.349 132.037 113.078 132.88C113.016 133.083 112.917 133.318 112.813 133.557L112.703 133.776L112.646 133.88C112.62 133.927 112.63 133.922 112.557 134.026C112.365 134.344 111.932 134.724 111.969 134.688L111.943 134.714L111.927 134.724C111.901 134.74 111.88 134.755 111.927 134.724C111.969 134.698 112.005 134.672 111.63 134.917L111.578 134.938C111.448 135 111.313 135.052 111.167 135.094C111.026 135.135 110.875 135.162 110.734 135.182L110.583 135.193L110.453 135.203L110.417 135.208H110.219L110.13 135.203L109.38 135.146C108.969 135.089 108.563 135.021 108.182 134.943L107.063 134.708C106.333 134.542 105.615 134.349 104.911 134.156C104.198 133.964 103.495 133.76 102.802 133.537C102.104 133.318 101.406 133.109 100.719 132.875L98.6563 132.162L96.6198 131.401C95.9375 131.146 95.2709 130.865 94.5938 130.599C93.9219 130.328 93.2552 130.031 92.5834 129.75L91.7656 129.401L91.5886 128.828C91.5104 128.563 91.4323 128.292 91.3646 128.026C91.2865 127.76 91.2136 127.49 91.1823 127.214L91.0573 126.396C91.0313 126.12 91.0313 125.844 91.0209 125.568L91.0104 125.162L91.0417 124.755C91.0625 124.484 91.0729 124.214 91.1146 123.948L91.2656 123.162C91.3125 122.901 91.3959 122.651 91.4688 122.396C91.5365 122.146 91.625 121.896 91.724 121.656C91.8229 121.417 91.9063 121.172 92.0261 120.943C92.1459 120.714 92.2448 120.479 92.375 120.26C92.5 120.042 92.625 119.823 92.7656 119.609C92.9063 119.401 93.0365 119.188 93.1927 118.99C93.349 118.792 93.4896 118.589 93.6563 118.401C93.9844 118.031 94.3229 117.667 94.7084 117.359Z" fill="#FF6500"/>
</g>
<mask id="mask12_84_972" style="mask-type:luminance" maskUnits="userSpaceOnUse" x="113" y="115" width="26" height="10">
<path d="M113.667 115H139V124.708H113.667V115Z" fill="white"/>
</mask>
<g mask="url(#mask12_84_972)">
<path d="M115.958 133.208C116.318 133.021 116.688 132.849 117.063 132.682C117.432 132.516 117.807 132.339 118.182 132.187C118.932 131.865 119.693 131.568 120.453 131.276C121.219 131 121.99 130.719 122.771 130.474C123.547 130.214 124.333 129.979 125.125 129.76L126.318 129.443L127.531 129.167C127.932 129.068 128.344 129 128.755 128.927C129.167 128.849 129.578 128.771 130.005 128.724C130.427 128.672 130.844 128.599 131.276 128.568L132.578 128.49L133.943 128.516C134.417 128.557 134.911 128.646 135.396 128.719L133.177 129.906C133.234 129.698 133.307 129.401 133.365 129.141C133.427 128.87 133.484 128.599 133.531 128.323C133.635 127.776 133.724 127.229 133.792 126.682C133.854 126.141 133.896 125.594 133.911 125.057C133.932 124.526 133.927 124 133.891 123.49C133.865 123.24 133.844 122.99 133.802 122.745C133.771 122.5 133.719 122.271 133.667 122.042C133.615 121.812 133.552 121.594 133.479 121.385C133.406 121.177 133.333 120.974 133.234 120.792C133.151 120.599 133.042 120.437 132.938 120.276L132.771 120.042L132.583 119.833C132.453 119.708 132.333 119.568 132.177 119.464C132.042 119.344 131.865 119.255 131.708 119.146L132.818 119.401C131.474 119.458 130.125 119.5 128.776 119.531C127.427 119.568 126.078 119.583 124.734 119.599C123.807 119.615 122.885 119.615 121.958 119.609C121.536 119.609 121.109 119.609 120.688 119.609C119.339 119.589 117.984 119.583 116.635 119.547L118.12 118.047C118.005 119.208 117.865 120.375 117.734 121.542C117.589 122.703 117.443 123.87 117.276 125.031C117.115 126.198 116.938 127.359 116.745 128.526C116.547 129.687 116.333 130.849 116.094 132.01C115.927 130.833 115.792 129.661 115.677 128.49C115.563 127.312 115.464 126.141 115.38 124.969C115.292 123.797 115.229 122.625 115.161 121.453C115.109 120.281 115.047 119.109 115.016 117.943L114.974 116.62L116.5 116.443C117.839 116.281 119.182 116.156 120.526 116.016C121.87 115.896 123.214 115.766 124.557 115.667C125.901 115.562 127.245 115.458 128.594 115.38C129.938 115.286 131.281 115.214 132.63 115.151L133.26 115.12L133.734 115.406C134.094 115.615 134.453 115.818 134.776 116.083C135.12 116.328 135.422 116.625 135.714 116.922L136.12 117.396L136.479 117.901C136.703 118.245 136.911 118.599 137.073 118.958C137.25 119.318 137.38 119.682 137.505 120.042C137.62 120.406 137.724 120.771 137.797 121.13C137.87 121.495 137.932 121.854 137.964 122.208C138.01 122.568 138.026 122.917 138.047 123.266C138.068 123.964 138.047 124.646 137.995 125.318C137.938 125.99 137.844 126.646 137.724 127.292C137.604 127.937 137.464 128.573 137.292 129.203C137.203 129.521 137.109 129.828 137.01 130.141C136.906 130.464 136.813 130.745 136.677 131.109L136.094 132.682L134.464 132.297L133.536 132.083L132.49 131.943L131.38 131.885C131.141 131.875 130.896 131.875 130.651 131.875C130.516 131.875 130.38 131.875 130.245 131.87C129.859 131.865 129.474 131.885 129.089 131.901C128.698 131.917 128.307 131.922 127.917 131.953L126.74 132.026L125.557 132.125C125.161 132.156 124.766 132.203 124.37 132.24L123.177 132.359L120.781 132.63L115.958 133.208Z" fill="#FF6500"/>
</g>
<path d="M132.724 117.276C132.724 117.276 132.776 117.245 132.849 117.182C132.875 117.135 132.854 117.089 132.854 117.037C132.87 116.969 132.865 116.917 132.88 116.844C132.891 116.703 132.906 116.537 132.922 116.339C132.943 116.151 132.969 115.948 133.01 115.734C133.089 115.307 133.219 114.844 133.427 114.401C133.625 113.953 133.906 113.531 134.24 113.151C134.573 112.771 134.969 112.438 135.401 112.172C135.833 111.906 136.307 111.708 136.76 111.573C136.984 111.51 137.208 111.458 137.417 111.422C137.62 111.385 137.823 111.37 137.984 111.354C138.141 111.333 138.297 111.344 138.391 111.339C138.49 111.339 138.547 111.339 138.547 111.339C138.547 111.339 138.563 111.396 138.583 111.49C138.594 111.583 138.635 111.729 138.651 111.891C138.667 112.052 138.693 112.255 138.698 112.469C138.703 112.682 138.693 112.912 138.672 113.151C138.625 113.63 138.505 114.141 138.302 114.625C138.099 115.115 137.802 115.578 137.438 115.984C137.073 116.396 136.646 116.75 136.161 117.021C135.682 117.292 135.161 117.474 134.651 117.573C134.396 117.62 134.146 117.651 133.911 117.656C133.677 117.662 133.443 117.635 133.255 117.604C133.172 117.589 133.063 117.563 132.995 117.531C132.911 117.5 132.813 117.453 132.781 117.417C132.734 117.333 132.724 117.271 132.724 117.276Z" fill="#FF6500"/>
<path d="M144.516 100.24C144.516 99.3333 143.422 98.5938 142.073 98.5938C140.719 98.5938 139.625 99.3333 139.625 100.24C139.625 101.146 140.719 101.88 142.073 101.88C143.422 101.88 144.516 101.146 144.516 100.24Z" fill="#FF6500"/>
<path d="M87.151 100.24C87.151 99.3333 86.0573 98.5938 84.7083 98.5938C83.3594 98.5938 82.2656 99.3333 82.2656 100.24C82.2656 101.146 83.3594 101.88 84.7083 101.88C86.0573 101.88 87.151 101.146 87.151 100.24Z" fill="#FF6500"/>
<path d="M90.6042 102.646C98.125 98.9219 107.458 92.2709 107.458 92.2709C103.833 100.432 90.6042 102.646 90.6042 102.646Z" fill="#FF6500"/>
<mask id="mask13_84_972" style="mask-type:luminance" maskUnits="userSpaceOnUse" x="93" y="123" width="17" height="2">
<path d="M93.6667 123H109.667V124.708H93.6667V123Z" fill="white"/>
</mask>
<g mask="url(#mask13_84_972)">
<path d="M108.396 128.797C92.0833 126.38 95.0365 123.693 95.0365 123.693C96.9167 126.245 108.396 128.797 108.396 128.797Z" fill="#FF6500"/>
</g>
<path d="M140.135 103.823C128.479 103.823 123.703 97.4584 123.703 97.4584C130.891 102.849 143.849 103.62 143.849 103.62C142.536 103.755 141.302 103.823 140.135 103.823Z" fill="#FF6500"/>
</svg>
