<svg width="501" height="257" viewBox="0 0 501 257" fill="none" xmlns="http://www.w3.org/2000/svg">
<path d="M27.302 110.344V148.49C27.302 148.672 27.2655 148.844 27.1978 149.01C27.1301 149.177 27.0312 149.328 26.901 149.453C26.776 149.583 26.6301 149.682 26.4635 149.75C26.2968 149.818 26.1197 149.854 25.9374 149.854H8.25513C7.71867 149.854 7.18742 149.802 6.66138 149.698C6.13534 149.589 5.62492 149.438 5.13013 149.229C4.63013 149.026 4.16138 148.771 3.71346 148.474C3.27075 148.177 2.85409 147.839 2.47388 147.458C2.09888 147.078 1.75513 146.667 1.45825 146.219C1.16138 145.776 0.911377 145.302 0.703044 144.807C0.499919 144.313 0.343668 143.802 0.239503 143.271C0.135335 142.745 0.083252 142.214 0.083252 141.677V117.099C0.083252 116.563 0.135335 116.031 0.239503 115.505C0.343668 114.979 0.499919 114.469 0.703044 113.974C0.911377 113.479 1.16138 113.005 1.45825 112.557C1.75513 112.115 2.09888 111.698 2.47388 111.323C2.85409 110.943 3.27075 110.604 3.71346 110.302C4.16138 110.005 4.63013 109.755 5.13013 109.547C5.62492 109.344 6.13534 109.188 6.66138 109.083C7.18742 108.979 7.71867 108.927 8.25513 108.927H25.9374C26.1197 108.927 26.2968 108.964 26.4635 109.031C26.6301 109.099 26.776 109.198 26.901 109.323C27.0312 109.453 27.1301 109.599 27.1978 109.766C27.2655 109.932 27.302 110.109 27.302 110.286V110.344Z" fill="#FF6500"/>
<path d="M500.162 117.099V141.625C500.162 142.162 500.11 142.693 500.005 143.219C499.901 143.745 499.745 144.255 499.542 144.75C499.333 145.25 499.083 145.719 498.787 146.167C498.49 146.609 498.151 147.026 497.771 147.406C497.391 147.781 496.979 148.125 496.531 148.422C496.083 148.719 495.615 148.969 495.115 149.177C494.62 149.38 494.11 149.537 493.583 149.641C493.057 149.745 492.526 149.797 491.99 149.797H474.307C474.125 149.797 473.953 149.766 473.781 149.693C473.615 149.625 473.469 149.526 473.344 149.401C473.214 149.271 473.115 149.125 473.047 148.958C472.979 148.792 472.943 148.615 472.943 148.438V110.286C472.943 110.109 472.979 109.932 473.047 109.766C473.115 109.599 473.214 109.453 473.344 109.323C473.469 109.198 473.615 109.099 473.781 109.031C473.953 108.964 474.125 108.927 474.307 108.927H491.99C492.526 108.927 493.057 108.979 493.583 109.083C494.11 109.188 494.62 109.344 495.115 109.547C495.615 109.755 496.083 110.005 496.531 110.302C496.979 110.604 497.391 110.943 497.771 111.323C498.151 111.698 498.49 112.115 498.787 112.557C499.083 113.005 499.333 113.479 499.542 113.974C499.745 114.469 499.901 114.979 500.005 115.505C500.11 116.031 500.162 116.563 500.162 117.099Z" fill="#FF6500"/>
<path d="M95.2292 51.8959V204.104C95.2292 205 95.1458 205.885 94.9688 206.76C94.7969 207.641 94.5365 208.49 94.1927 209.318C93.8542 210.146 93.4323 210.927 92.9375 211.672C92.4375 212.417 91.875 213.104 91.2396 213.74C90.6094 214.37 89.9219 214.932 89.1771 215.432C88.4323 215.927 87.6458 216.349 86.8229 216.693C85.9948 217.031 85.1406 217.292 84.2656 217.464C83.3906 217.641 82.5 217.729 81.6094 217.729H54.3594C53.4635 217.729 52.5781 217.641 51.7031 217.464C50.8229 217.292 49.974 217.031 49.1458 216.693C48.3177 216.349 47.5365 215.927 46.7917 215.432C46.0469 214.932 45.3594 214.37 44.724 213.74C44.0937 213.104 43.5313 212.417 43.0313 211.672C42.5365 210.927 42.1146 210.146 41.7708 209.318C41.4323 208.49 41.1719 207.641 41 206.76C40.8229 205.885 40.7344 205 40.7344 204.104V51.8959C40.7344 51 40.8229 50.1146 41 49.2396C41.1719 48.3594 41.4323 47.5105 41.7708 46.6823C42.1146 45.8542 42.5365 45.073 43.0313 44.3282C43.5313 43.5834 44.0937 42.8959 44.724 42.2605C45.3594 41.6302 46.0469 41.0677 46.7917 40.5677C47.5365 40.073 48.3177 39.6511 49.1458 39.3073C49.974 38.9688 50.8229 38.7084 51.7031 38.5365C52.5781 38.3594 53.4635 38.2709 54.3594 38.2709H81.6094C82.5 38.2709 83.3906 38.3594 84.2656 38.5365C85.1406 38.7084 85.9948 38.9688 86.8229 39.3073C87.6458 39.6511 88.4323 40.073 89.1771 40.5677C89.9219 41.0677 90.6094 41.6302 91.2396 42.2605C91.875 42.8959 92.4375 43.5834 92.9375 44.3282C93.4323 45.073 93.8542 45.8542 94.1927 46.6823C94.5365 47.5105 94.7969 48.3594 94.9688 49.2396C95.1458 50.1146 95.2292 51 95.2292 51.8959Z" fill="#FF6500"/>
<mask id="mask0_197_837" style="mask-type:luminance" maskUnits="userSpaceOnUse" x="108" y="0" width="56" height="257">
<path d="M108 0.1875H164V256.188H108V0.1875Z" fill="white"/>
</mask>
<g mask="url(#mask0_197_837)">
<path d="M163.162 13.8594V242.141C163.162 243.036 163.073 243.922 162.901 244.802C162.724 245.677 162.464 246.531 162.125 247.354C161.781 248.182 161.359 248.969 160.865 249.708C160.37 250.453 159.802 251.141 159.172 251.776C158.537 252.406 157.849 252.974 157.104 253.469C156.365 253.969 155.578 254.385 154.75 254.729C153.922 255.073 153.073 255.328 152.193 255.505C151.318 255.677 150.432 255.766 149.537 255.766H122.287C121.396 255.766 120.51 255.677 119.63 255.505C118.755 255.328 117.901 255.073 117.073 254.729C116.25 254.385 115.464 253.969 114.719 253.469C113.974 252.974 113.287 252.406 112.656 251.776C112.021 251.141 111.458 250.453 110.958 249.708C110.464 248.969 110.042 248.182 109.703 247.354C109.359 246.531 109.099 245.677 108.927 244.802C108.75 243.922 108.667 243.036 108.667 242.141V13.8594C108.667 12.9635 108.75 12.0781 108.927 11.1979C109.099 10.3229 109.359 9.46875 109.703 8.64583C110.042 7.81771 110.464 7.03125 110.958 6.29167C111.458 5.54687 112.021 4.85937 112.656 4.22396C113.287 3.59375 113.974 3.02604 114.719 2.53125C115.464 2.03125 116.25 1.61458 117.073 1.27083C117.901 0.927083 118.755 0.671874 119.63 0.494792C120.51 0.322917 121.396 0.234375 122.287 0.234375H149.537C150.432 0.234375 151.318 0.322917 152.193 0.494792C153.073 0.671874 153.922 0.927083 154.75 1.27083C155.578 1.61458 156.365 2.03125 157.104 2.53125C157.849 3.02604 158.537 3.59375 159.172 4.22396C159.802 4.85937 160.37 5.54687 160.865 6.29167C161.359 7.03125 161.781 7.81771 162.125 8.64583C162.464 9.46875 162.724 10.3229 162.901 11.1979C163.073 12.0781 163.162 12.9635 163.162 13.8594Z" fill="#FF6500"/>
</g>
<path d="M459.401 51.8959V204.104C459.401 205 459.313 205.885 459.141 206.76C458.964 207.641 458.708 208.49 458.365 209.318C458.021 210.146 457.599 210.927 457.104 211.672C456.609 212.417 456.042 213.104 455.411 213.74C454.776 214.37 454.089 214.932 453.344 215.432C452.604 215.927 451.818 216.349 450.99 216.693C450.161 217.031 449.313 217.292 448.432 217.464C447.557 217.641 446.672 217.729 445.776 217.729H418.526C417.635 217.729 416.75 217.641 415.87 217.464C414.995 217.292 414.141 217.031 413.313 216.693C412.49 216.349 411.703 215.927 410.958 215.432C410.214 214.932 409.526 214.37 408.896 213.74C408.26 213.104 407.698 212.417 407.203 211.672C406.703 210.927 406.286 210.146 405.943 209.318C405.599 208.49 405.339 207.641 405.167 206.76C404.99 205.885 404.906 205 404.906 204.104V51.8959C404.906 51 404.99 50.1146 405.167 49.2396C405.339 48.3594 405.599 47.5105 405.943 46.6823C406.286 45.8542 406.703 45.073 407.203 44.3282C407.698 43.5834 408.26 42.8959 408.896 42.2605C409.526 41.6302 410.214 41.0677 410.958 40.5677C411.703 40.073 412.49 39.6511 413.313 39.3073C414.141 38.9688 414.995 38.7084 415.87 38.5365C416.75 38.3594 417.635 38.2709 418.526 38.2709H445.776C446.672 38.2709 447.557 38.3594 448.432 38.5365C449.313 38.7084 450.161 38.9688 450.99 39.3073C451.818 39.6511 452.604 40.073 453.344 40.5677C454.089 41.0677 454.776 41.6302 455.411 42.2605C456.042 42.8959 456.609 43.5834 457.104 44.3282C457.599 45.073 458.021 45.8542 458.365 46.6823C458.703 47.5105 458.964 48.3594 459.141 49.2396C459.313 50.1146 459.401 51 459.401 51.8959Z" fill="#FF6500"/>
<mask id="mask1_197_837" style="mask-type:luminance" maskUnits="userSpaceOnUse" x="336" y="0" width="56" height="257">
<path d="M336 0.1875H392V256.188H336V0.1875Z" fill="white"/>
</mask>
<g mask="url(#mask1_197_837)">
<path d="M391.443 13.8594V242.141C391.443 243.036 391.359 243.922 391.182 244.802C391.005 245.677 390.75 246.531 390.406 247.354C390.062 248.182 389.646 248.969 389.146 249.708C388.651 250.453 388.088 251.141 387.453 251.776C386.823 252.406 386.135 252.974 385.39 253.469C384.646 253.969 383.859 254.385 383.031 254.729C382.208 255.073 381.354 255.328 380.479 255.505C379.599 255.677 378.713 255.766 377.818 255.766H350.573C349.677 255.766 348.792 255.677 347.917 255.505C347.036 255.328 346.187 255.073 345.359 254.729C344.531 254.385 343.745 253.969 343.005 253.469C342.26 252.974 341.573 252.406 340.937 251.776C340.307 251.141 339.739 250.453 339.245 249.708C338.745 248.969 338.328 248.182 337.984 247.354C337.64 246.531 337.385 245.677 337.208 244.802C337.036 243.922 336.948 243.036 336.948 242.141V13.8594C336.948 12.9635 337.036 12.0781 337.208 11.1979C337.385 10.3229 337.64 9.46875 337.984 8.64583C338.328 7.81771 338.745 7.03125 339.245 6.29167C339.739 5.54687 340.307 4.85937 340.937 4.22396C341.573 3.59375 342.26 3.02604 343.005 2.53125C343.745 2.03125 344.531 1.61458 345.359 1.27083C346.187 0.927083 347.036 0.671874 347.917 0.494792C348.792 0.322917 349.677 0.234375 350.573 0.234375H377.818C378.713 0.234375 379.599 0.322917 380.479 0.494792C381.354 0.671874 382.208 0.927083 383.031 1.27083C383.859 1.61458 384.646 2.03125 385.39 2.53125C386.135 3.02604 386.823 3.59375 387.453 4.22396C388.088 4.85937 388.651 5.54687 389.146 6.29167C389.646 7.03125 390.062 7.81771 390.406 8.64583C390.75 9.46875 391.005 10.3229 391.182 11.1979C391.359 12.0781 391.443 12.9635 391.443 13.8594Z" fill="#FF6500"/>
</g>
<path d="M323.516 96.7448V161.979C323.516 162.156 323.479 162.333 323.411 162.5C323.344 162.667 323.245 162.813 323.115 162.943C322.99 163.068 322.838 163.167 322.672 163.234C322.505 163.307 322.333 163.339 322.151 163.339H178.12C177.937 163.339 177.766 163.307 177.599 163.234C177.432 163.167 177.286 163.068 177.156 162.943C177.031 162.813 176.932 162.667 176.859 162.5C176.792 162.333 176.755 162.156 176.755 161.979V96.7448C176.755 96.5677 176.792 96.3906 176.859 96.224C176.932 96.0573 177.031 95.9115 177.156 95.7813C177.286 95.6563 177.432 95.5573 177.599 95.4896C177.766 95.4167 177.937 95.3854 178.12 95.3854H322.151C322.333 95.3854 322.505 95.4167 322.672 95.4896C322.838 95.5573 322.99 95.6563 323.115 95.7813C323.245 95.9115 323.344 96.0573 323.411 96.224C323.479 96.3906 323.516 96.5677 323.516 96.7448Z" fill="#FF6500"/>
</svg>
