<svg width="226" height="126" viewBox="0 0 226 126" fill="none" xmlns="http://www.w3.org/2000/svg">
<mask id="mask0_66_1071" style="mask-type:luminance" maskUnits="userSpaceOnUse" x="161" y="34" width="65" height="87">
<path d="M161.667 34.3438H225.417V121H161.667V34.3438Z" fill="white"/>
</mask>
<g mask="url(#mask0_66_1071)">
<path d="M191.432 34.375C190.828 34.3855 190.12 34.4636 189.089 34.6042C184.828 35.1823 182.417 35.7344 182.271 36.1563C182.208 36.3542 181.708 36.5157 181.172 36.5157C179.599 36.5105 176.771 37.6823 175.734 38.7657C174.974 39.5573 174.745 40.2292 174.354 43.1823C174.281 43.6303 174.229 44.0834 174.193 44.5469C174.187 44.599 174.182 44.6459 174.182 44.698C173.948 46.7032 173.849 48.2448 173.953 49.448C173.948 49.4584 173.953 49.474 173.953 49.4896C173.937 53.5573 178.13 55.6355 181.641 56.1146C182.552 56.5678 183.349 56.5417 184.099 56.3178C184.875 56.3594 185.271 56.1667 186.135 55.6511C186.74 55.2917 187.323 55.0521 187.943 54.9375C188.563 55.4167 189.385 55.2292 190.089 54.849C191.427 54.724 192.193 54.1511 192.594 52.9948L192.896 52.1459C194.297 55.0313 194.635 58.4375 195.25 61.5521C195.344 62.9167 195.349 64.2761 195.307 65.6407C195.266 66.5261 195.198 67.5417 195.115 68.849C195.031 70.0782 194.969 71.2709 194.896 72.4584C194.859 73.0365 194.823 73.6355 194.792 74.1615C194.766 74.5938 194.74 75.0261 194.724 75.4584C194.719 75.5469 194.714 75.6355 194.708 75.724C194.677 76.3542 194.63 77.2136 194.62 77.5261L194.562 79.1927C194.49 79.25 194.406 79.3334 194.318 79.4792L193.62 78.6563C191.432 76.073 189.958 75.3178 186.229 74.9063C182.917 74.5417 180.828 75.4323 177.411 78.698L174.547 81.4375L173.318 80.8021C171.964 80.1042 164.708 77.7136 163.937 77.7136C163.667 77.7136 163.453 77.8594 163.453 78.0313C163.453 78.2084 165.062 78.6198 166.63 79.0782C168.031 79.4948 169.193 80.0573 171.193 80.8282C171.99 81.1198 172.359 81.2448 172.812 81.4115C173.224 82.0573 175.104 84.0677 175.354 87.8177C177.276 79.0625 182.354 75.25 186.479 75.7553C187.417 75.9428 187.302 75.9219 187.87 76.0573C190.672 76.7396 191.005 77.8021 193.052 79.1719C193.688 80.0782 193.885 80.4948 194.068 80.6302C194.953 81.8542 194.573 83.1407 196.573 86.1355C198.516 88.4011 199.682 90.4427 201.87 91.474C212.464 94.8698 221.203 87.0052 217.01 87.6875C204.359 89.75 197.307 65.5 199.677 55.2136C198.917 50.7084 205.75 60.323 203.562 55.6042C202.271 52.3334 199.76 49.6771 198.193 46.5938C196.464 43.2813 195.802 46.8282 194.297 48.5261C193.734 50.7761 190.589 48.1459 191.214 49.6042C191.646 50.0938 192.016 50.6042 192.344 51.1459C192.172 51.5938 191.781 52.599 191.052 52.8698C190.682 53.1407 190.344 53.3073 190.021 53.4219C189.615 51.7448 188.375 49.4115 187.964 47.6042C184.37 43.948 187.542 50.75 187.031 52.6511C186.536 56.625 184.964 51.448 184.776 50.1094C184.01 47.7344 184.557 40.6303 180.5 43.8698C180.349 45.0053 182.396 49.2084 181.792 51.698C181.958 55.6615 180.609 51.1667 180.557 49.7084C180 48.6667 180.208 42.5678 177.755 40.224C177.323 40.6823 176.75 41.0105 176.307 41.0782C176.297 40.948 176.286 40.8073 176.26 40.6146C176.135 39.7552 176.286 39.2865 176.849 38.8125C177.901 37.9219 179.911 37.4844 181.125 37.25C181.703 37.25 182.266 37.1042 182.375 36.9271C182.484 36.75 182.911 36.5157 183.318 36.4115C183.729 36.3021 186.917 35.474 189.641 35.2032C191.63 35.0053 192.562 35.1198 194.573 35.7657C198.812 37.1355 199.661 37.7084 200.594 39.8907C201.057 40.9636 202.24 43.5209 203.229 45.573C204.214 47.6198 205.021 49.4011 205.021 49.5261C205.021 49.6511 205.271 50.0469 205.583 50.4011C205.896 50.7553 207.354 52.8646 208.828 55.0886C210.297 57.3125 212.578 60.7084 213.885 62.6303C215.193 64.5521 216.464 66.5365 216.714 67.0417C216.958 67.5469 217.578 68.625 218.078 69.4323C220.401 73.1823 222.198 78.4011 222.667 82.7344C222.849 84.4532 223.323 86.3698 223.755 87.2292C224.557 88.7917 224.781 91.4844 224.151 91.875C223.984 91.974 223.849 92.2292 223.802 92.4948C223.047 93.4844 221.932 95.4688 219.828 96.2396C212.604 99.1771 199.542 97.8646 196.812 96.2761C201.651 100.75 203.057 101.047 203.432 104.943C199.109 105.385 181.578 105.807 178.604 101.198C178.807 97.5209 191.094 97.8959 192.698 88.8594C190.729 91.1511 184.505 101.391 171.823 92.4115C170.167 91.2396 157.417 88.5417 168.547 96.3698C166.812 99.0469 162.651 98.8125 162.661 101.943L162.708 120.094L162.766 120.01C162.865 120.943 164.568 119.484 166.406 115.911L168.177 112.474H168.292C172.312 112.74 176.234 113.797 180.203 114.417C181.974 114.51 183.74 114.474 185.5 114.323C185.573 114.318 185.646 114.307 185.719 114.302C185.932 114.281 186.141 114.266 186.354 114.245C186.453 114.234 186.557 114.219 186.661 114.208C187.724 114.094 188.854 113.932 190.12 113.714C196.151 112.672 204.146 109.302 209.661 105.484C211.594 104.146 214.448 102.458 215.995 101.724C219.776 99.9427 223.729 96.0677 224.63 93.2761C225.448 90.7396 225.406 89.2084 224.458 87.0573C224.021 86.073 223.536 84.0261 223.375 82.5052C222.943 78.4115 221.094 73.1146 218.812 69.4375C218.312 68.625 217.693 67.5521 217.448 67.0469C217.198 66.5365 215.927 64.5521 214.62 62.6303C213.312 60.7084 211.036 57.3178 209.562 55.0886C208.083 52.8646 206.651 50.7136 206.375 50.3073C206.104 49.9011 204.932 47.5886 203.792 45.1563C200.266 37.6875 200.161 37.5 198.594 36.6303C197.792 36.1823 196 35.4532 194.615 35.0105C193.177 34.5469 192.448 34.3594 191.432 34.375ZM176.458 46.25L176.771 50.474C176.25 53.0313 175.516 47.0834 176.458 46.25Z" fill="#FF6500"/>
</g>
<mask id="mask1_66_1071" style="mask-type:luminance" maskUnits="userSpaceOnUse" x="0" y="34" width="65" height="87">
<path d="M0.583328 34.3438H64.3333V121H0.583328V34.3438Z" fill="white"/>
</mask>
<g mask="url(#mask1_66_1071)">
<path d="M34.5625 34.375C35.1719 34.3855 35.8802 34.4636 36.9115 34.6042C41.1719 35.1823 43.5833 35.7344 43.724 36.1563C43.7917 36.3542 44.2917 36.5157 44.8281 36.5157C46.401 36.5105 49.2292 37.6823 50.2656 38.7657C51.026 39.5573 51.2552 40.2292 51.6458 43.1823C51.7188 43.6303 51.7708 44.0834 51.8073 44.5469C51.8125 44.599 51.8177 44.6459 51.8177 44.698C52.0521 46.7032 52.151 48.2448 52.0469 49.448C52.0521 49.4584 52.0469 49.474 52.0469 49.4896C52.0625 53.5573 47.8698 55.6355 44.3594 56.1146C43.4479 56.5678 42.651 56.5417 41.901 56.3178C41.125 56.3594 40.7292 56.1667 39.8646 55.6511C39.2604 55.2917 38.6771 55.0521 38.0573 54.9375C37.4375 55.4167 36.6146 55.2292 35.9115 54.849C34.5729 54.724 33.8073 54.1511 33.4062 52.9948L33.1042 52.1459C31.7031 55.0313 31.3646 58.4375 30.75 61.5521C30.6563 62.9167 30.651 64.2761 30.6927 65.6407C30.7344 66.5261 30.8021 67.5417 30.8854 68.849C30.9688 70.0782 31.0313 71.2709 31.1042 72.4584C31.1406 73.0365 31.1771 73.6355 31.2083 74.1615C31.2344 74.5938 31.2604 75.0261 31.276 75.4584C31.2813 75.5469 31.2865 75.6355 31.2917 75.724C31.3229 76.3542 31.3698 77.2136 31.3802 77.5261L31.4375 79.1927C31.5104 79.25 31.5938 79.3334 31.6823 79.4792L32.3802 78.6563C34.5677 76.073 36.0417 75.3178 39.7708 74.9063C43.0833 74.5417 45.1667 75.4323 48.5885 78.698L51.4531 81.4375L52.6823 80.8021C54.0365 80.1042 61.2917 77.7136 62.0625 77.7136C62.3281 77.7136 62.5469 77.8594 62.5469 78.0313C62.5469 78.2084 60.9375 78.6198 59.3698 79.0782C57.9688 79.4948 56.8073 80.0573 54.8073 80.8282C54.0104 81.1198 53.6406 81.2448 53.1875 81.4115C52.776 82.0573 50.8958 84.0677 50.6458 87.8177C48.724 79.0625 43.6458 75.25 39.5208 75.7553C38.5833 75.9428 38.6979 75.9219 38.1302 76.0573C35.3281 76.7396 34.9896 77.8021 32.9427 79.1719C32.3125 80.0782 32.1146 80.4948 31.9323 80.6302C31.0417 81.8542 31.4271 83.1407 29.4271 86.1355C27.4844 88.4011 26.3177 90.4427 24.1302 91.474C13.5365 94.8698 4.79688 87.0052 8.98958 87.6875C21.6406 89.75 28.6927 65.5 26.3229 55.2136C27.0833 50.7084 20.25 60.323 22.4375 55.6042C23.7292 52.3334 26.2396 49.6771 27.8073 46.5938C29.5365 43.2813 30.1979 46.8282 31.7031 48.5261C32.2656 50.7761 35.4115 48.1459 34.7865 49.6042C34.3542 50.0938 33.9844 50.6042 33.6562 51.1459C33.8281 51.5938 34.2188 52.599 34.9427 52.8698C35.3177 53.1407 35.6562 53.3073 35.9792 53.4219C36.3802 51.7448 37.625 49.4115 38.0365 47.6042C41.6302 43.948 38.4583 50.75 38.9688 52.6511C39.4635 56.625 41.0365 51.448 41.2188 50.1094C41.9844 47.7344 41.4427 40.6303 45.4948 43.8698C45.651 45.0053 43.6042 49.2084 44.2083 51.698C44.0417 55.6615 45.3906 51.1667 45.4375 49.7084C46 48.6667 45.7917 42.5678 48.2448 40.224C48.6771 40.6823 49.25 41.0105 49.6927 41.0782C49.7031 40.948 49.7083 40.8073 49.7396 40.6146C49.8646 39.7552 49.7135 39.2865 49.151 38.8125C48.099 37.9219 46.0885 37.4844 44.875 37.25C44.2969 37.25 43.7344 37.1042 43.625 36.9271C43.5156 36.75 43.0885 36.5157 42.6823 36.4115C42.2708 36.3021 39.0833 35.474 36.3594 35.2032C34.3698 35.0053 33.4375 35.1198 31.4271 35.7657C27.1823 37.1355 26.3385 37.7084 25.4062 39.8907C24.9427 40.9636 23.7604 43.5209 22.7708 45.573C21.7865 47.6198 20.9792 49.4011 20.9792 49.5261C20.9792 49.6511 20.7292 50.0469 20.4167 50.4011C20.1042 50.7553 18.6458 52.8646 17.1719 55.0886C15.7031 57.3125 13.4219 60.7084 12.1146 62.6303C10.8073 64.5521 9.53646 66.5365 9.28646 67.0417C9.04167 67.5469 8.42188 68.625 7.92188 69.4323C5.59896 73.1823 3.80208 78.4011 3.33333 82.7344C3.14583 84.4532 2.67708 86.3698 2.23958 87.2292C1.44271 88.7917 1.21875 91.4844 1.84896 91.875C2.01563 91.974 2.14583 92.2292 2.19792 92.4948C2.95313 93.4844 4.06771 95.4688 6.17188 96.2396C13.3958 99.1771 26.4583 97.8646 29.1875 96.2761C24.349 100.75 22.9427 101.047 22.5677 104.943C26.8906 105.385 44.4219 105.807 47.3958 101.198C47.1927 97.5209 34.9063 97.8959 33.3021 88.8594C35.2708 91.1511 41.4948 101.391 54.1771 92.4115C55.8333 91.2396 68.5833 88.5417 57.4531 96.3698C59.1875 99.0469 63.349 98.8125 63.3385 101.943L63.2917 120.094L63.2344 120.01C63.1354 120.943 61.4271 119.484 59.5938 115.911L57.8229 112.474H57.7083C53.6875 112.74 49.7656 113.797 45.7969 114.417C44.026 114.51 42.2604 114.474 40.5 114.323C40.4271 114.318 40.3542 114.307 40.2812 114.302C40.0677 114.281 39.8594 114.266 39.6458 114.245C39.5469 114.234 39.4427 114.219 39.3385 114.208C38.276 114.094 37.1458 113.932 35.875 113.714C29.849 112.672 21.8542 109.302 16.3385 105.484C14.4063 104.146 11.5521 102.458 10 101.724C6.22396 99.9427 2.27083 96.0677 1.36979 93.2761C0.552083 90.7396 0.588542 89.2084 1.54167 87.0573C1.97917 86.073 2.45833 84.0261 2.625 82.5052C3.05729 78.4115 4.90625 73.1146 7.1875 69.4375C7.6875 68.625 8.30729 67.5521 8.55208 67.0469C8.80208 66.5365 10.0729 64.5521 11.3802 62.6303C12.6875 60.7084 14.9635 57.3178 16.4375 55.0886C17.9167 52.8646 19.349 50.7136 19.625 50.3073C19.8958 49.9011 21.0677 47.5886 22.2083 45.1563C25.7292 37.6875 25.8385 37.5 27.4062 36.6303C28.2083 36.1823 30 35.4532 31.3854 35.0105C32.8229 34.5469 33.5521 34.3594 34.5677 34.375H34.5625ZM49.5417 46.25L49.2292 50.474C49.75 53.0313 50.4844 47.0834 49.5417 46.25Z" fill="#FF6500"/>
</g>
<mask id="mask2_66_1071" style="mask-type:luminance" maskUnits="userSpaceOnUse" x="68" y="82" width="46" height="27">
<path d="M68.5833 82.5521H113.667V109H68.5833V82.5521Z" fill="white"/>
</mask>
<g mask="url(#mask2_66_1071)">
<path d="M70.2917 82.6719C70.2917 82.6719 70.3542 82.9271 70.474 83.4011C70.5833 83.875 70.7396 84.5625 70.9427 85.4427C71.349 87.1823 71.8542 89.6355 72.6094 92.4375C72.7969 93.1407 73.0104 93.8594 73.2344 94.5938C73.3542 94.9584 73.4844 95.3282 73.5937 95.7084C73.724 96.0782 73.8385 96.4584 73.9635 96.8438C74.4844 98.3646 74.9687 100.01 75.8333 101.589C76.6875 103.151 78.0729 104.542 79.8333 105.297C80.2812 105.458 80.724 105.635 81.1927 105.745C81.6615 105.833 82.125 105.964 82.6094 105.979L83.3333 106.021C83.3802 106.026 83.474 106.031 83.4844 106.026L84.0625 106.01L85.6042 105.938C86.1302 105.927 86.6146 105.849 87.099 105.792L88.5469 105.62C89.026 105.542 89.5104 105.464 89.9844 105.396C90.4635 105.328 90.9323 105.271 91.3958 105.172C91.8594 105.083 92.3177 105.005 92.776 104.917C93.2344 104.828 93.6719 104.688 94.1146 104.578C95.0052 104.385 95.8229 104.026 96.6562 103.771C97.0573 103.609 97.4479 103.422 97.8437 103.271C98.0365 103.193 98.2344 103.115 98.4271 103.036C98.6146 102.943 98.7969 102.844 98.9896 102.755C99.3594 102.578 99.7292 102.401 100.094 102.229C100.448 102.031 100.797 101.839 101.141 101.646C101.318 101.552 101.49 101.464 101.661 101.37C101.828 101.26 101.99 101.156 102.156 101.052C102.479 100.849 102.802 100.641 103.125 100.448C103.432 100.224 103.734 100.01 104.026 99.7917C104.323 99.5782 104.635 99.3855 104.901 99.1459C106.016 98.2657 107.01 97.3802 107.875 96.5469C108.312 96.125 108.714 95.7292 109.089 95.3646C109.448 94.9792 109.781 94.625 110.099 94.3073C110.255 94.1459 110.406 93.9948 110.542 93.8542C110.672 93.7032 110.797 93.5625 110.917 93.4375C111.156 93.1771 111.359 92.9584 111.526 92.7813C111.865 92.4271 112.052 92.2396 112.052 92.2396L112.432 92.4427C112.432 92.4427 112.37 92.698 112.234 93.1771C112.167 93.4167 112.078 93.7084 111.974 94.0521C111.875 94.4063 111.729 94.7917 111.552 95.2188C111.385 95.6563 111.182 96.1302 110.958 96.6459C110.714 97.1563 110.422 97.6927 110.109 98.2709C109.464 99.4063 108.62 100.646 107.542 101.901C107.005 102.531 106.375 103.12 105.729 103.75C105.391 104.042 105.031 104.328 104.667 104.62C104.484 104.766 104.302 104.917 104.115 105.063C103.922 105.203 103.719 105.333 103.516 105.464C103.109 105.719 102.698 105.984 102.281 106.25C101.844 106.479 101.391 106.693 100.937 106.922C100.708 107.037 100.474 107.141 100.245 107.245C100.005 107.333 99.7604 107.422 99.5208 107.51C99.0365 107.688 98.5417 107.849 98.0417 108.01C97.5365 108.135 97.026 108.25 96.5104 108.37C95.9948 108.505 95.474 108.578 94.9479 108.646C94.4219 108.714 93.8958 108.807 93.3646 108.849C92.8333 108.88 92.3021 108.912 91.7656 108.943C91.2292 108.99 90.6979 108.958 90.1615 108.932C89.6302 108.906 89.0937 108.87 88.5625 108.823C88.026 108.745 87.4948 108.656 86.9531 108.573C86.4219 108.484 85.8854 108.406 85.3958 108.271L83.8906 107.927L83.5156 107.849L83.3281 107.807C83.2083 107.786 83.1823 107.771 83.1042 107.755L82.3177 107.547C82.0573 107.484 81.7969 107.417 81.5469 107.318L80.7865 107.068C80.2812 106.901 79.8021 106.667 79.3073 106.479C77.401 105.573 75.6302 104.422 74.0677 103.026C72.5312 101.62 71.2604 99.9636 70.4792 98.2344C70.2708 97.8073 70.1146 97.3698 69.9479 96.9427C69.8021 96.5052 69.6719 96.0782 69.5625 95.6511C69.4583 95.224 69.3437 94.8073 69.2656 94.3907C69.1927 93.9792 69.1094 93.573 69.0521 93.1719C68.5833 89.9688 68.8021 87.3073 69.1198 85.4792C69.4479 83.6511 69.8646 82.6459 69.8646 82.6459L70.2917 82.6719Z" fill="#FF6500"/>
</g>
<mask id="mask3_66_1071" style="mask-type:luminance" maskUnits="userSpaceOnUse" x="112" y="82" width="46" height="27">
<path d="M112.333 82.5521H157.583V109H112.333V82.5521Z" fill="white"/>
</mask>
<g mask="url(#mask3_66_1071)">
<path d="M156.198 82.6459C156.198 82.6459 156.609 83.6511 156.937 85.4792C157.26 87.3073 157.479 89.9688 157.01 93.1719C156.953 93.573 156.87 93.9792 156.797 94.3907C156.714 94.8073 156.599 95.224 156.5 95.6511C156.385 96.0782 156.255 96.5052 156.115 96.9427C155.943 97.3698 155.786 97.8073 155.583 98.2344C154.797 99.9636 153.531 101.62 151.99 103.026C150.432 104.422 148.661 105.573 146.755 106.479C146.26 106.667 145.781 106.901 145.276 107.068L144.516 107.318C144.26 107.417 144.005 107.484 143.74 107.547L142.958 107.755C142.88 107.771 142.849 107.786 142.734 107.807L142.547 107.849L142.167 107.927L140.667 108.271C140.172 108.406 139.641 108.484 139.104 108.573C138.568 108.656 138.036 108.745 137.5 108.823C136.964 108.87 136.432 108.906 135.901 108.932C135.365 108.958 134.828 108.99 134.297 108.943C133.76 108.912 133.229 108.88 132.698 108.849C132.167 108.807 131.641 108.714 131.115 108.646C130.589 108.578 130.062 108.505 129.552 108.37C129.036 108.25 128.521 108.135 128.016 108.01C127.521 107.849 127.026 107.688 126.542 107.51C126.297 107.422 126.057 107.333 125.818 107.245C125.583 107.141 125.354 107.037 125.125 106.922C124.672 106.693 124.219 106.479 123.781 106.25C123.365 105.984 122.953 105.719 122.542 105.464C122.339 105.333 122.141 105.203 121.948 105.063C121.76 104.917 121.578 104.766 121.396 104.62C121.031 104.328 120.672 104.042 120.328 103.75C119.687 103.12 119.052 102.531 118.521 101.901C117.443 100.646 116.599 99.4063 115.948 98.2709C115.635 97.6927 115.349 97.1563 115.099 96.6459C114.875 96.1302 114.677 95.6563 114.505 95.2188C114.328 94.7917 114.187 94.4063 114.089 94.0521C113.984 93.7084 113.896 93.4167 113.823 93.1771C113.693 92.698 113.63 92.4427 113.63 92.4427L114.005 92.2396C114.005 92.2396 114.198 92.4271 114.536 92.7813C114.703 92.9584 114.906 93.1771 115.146 93.4375C115.266 93.5625 115.391 93.7032 115.516 93.8542C115.656 93.9948 115.802 94.1459 115.964 94.3073C116.276 94.625 116.609 94.9792 116.974 95.3646C117.344 95.7292 117.75 96.125 118.182 96.5469C119.052 97.3802 120.047 98.2657 121.161 99.1459C121.427 99.3855 121.734 99.5782 122.036 99.7917C122.328 100.01 122.63 100.224 122.937 100.448C123.26 100.641 123.583 100.849 123.906 101.052C124.068 101.156 124.234 101.26 124.396 101.37C124.568 101.464 124.745 101.552 124.917 101.646C125.26 101.839 125.609 102.031 125.964 102.229C126.333 102.401 126.703 102.578 127.073 102.755C127.26 102.844 127.448 102.943 127.63 103.036C127.828 103.115 128.021 103.193 128.219 103.271C128.615 103.422 129 103.609 129.406 103.771C130.234 104.026 131.057 104.385 131.948 104.578C132.391 104.688 132.828 104.828 133.281 104.917C133.74 105.005 134.203 105.083 134.667 105.172C135.125 105.271 135.599 105.328 136.078 105.396C136.552 105.464 137.031 105.542 137.516 105.62L138.964 105.792C139.448 105.849 139.932 105.927 140.458 105.938L142 106.01L142.385 106.021L142.573 106.026C142.583 106.031 142.682 106.026 142.729 106.021L143.448 105.979C143.937 105.964 144.396 105.833 144.87 105.745C145.339 105.635 145.781 105.458 146.229 105.297C147.984 104.542 149.375 103.151 150.229 101.589C151.094 100.01 151.573 98.3646 152.094 96.8438C152.219 96.4584 152.339 96.0782 152.464 95.7084C152.578 95.3282 152.703 94.9584 152.828 94.5938C153.052 93.8594 153.266 93.1407 153.448 92.4375C154.208 89.6355 154.714 87.1823 155.115 85.4427C155.323 84.5625 155.479 83.875 155.589 83.4011C155.708 82.9271 155.771 82.6719 155.771 82.6719L156.198 82.6459Z" fill="#FF6500"/>
</g>
<mask id="mask4_66_1071" style="mask-type:luminance" maskUnits="userSpaceOnUse" x="75" y="101" width="80" height="25">
<path d="M75 101H155V125.552H75V101Z" fill="white"/>
</mask>
<g mask="url(#mask4_66_1071)">
<path d="M76.2812 103.583C76.3073 106.563 76.3854 109.552 76.6927 112.469C76.7344 112.833 76.7917 113.193 76.8437 113.552C76.8906 113.917 76.9323 114.255 77.0104 114.625L77.4219 116.833L78.2344 121.234L79.0417 125.63L79.7969 130.047C80.0417 131.526 80.3281 132.969 80.5208 134.495C80.7396 135.995 80.9583 137.531 81.1198 138.938L82.3437 147.766C82.5365 149.24 82.7292 150.719 82.9427 152.177C83.0521 152.891 83.1458 153.667 83.2708 154.287L83.2812 154.349V154.375L83.276 154.344C83.2656 154.302 83.2396 154.26 83.2083 154.229L83.1562 154.182C83.1458 154.177 83.099 154.12 83.1302 154.156L83.1562 154.182L83.224 154.271L83.5573 154.672L84.2812 155.531C86.1927 157.844 88.0625 160.198 89.8542 162.609C90.7552 163.813 91.6406 165.026 92.4948 166.266C93.3542 167.505 94.1979 168.75 94.974 170.052C95.75 171.354 96.4948 172.682 97.026 174.156C97.0885 174.344 97.1562 174.526 97.2083 174.719L97.3385 175.271C97.3594 175.354 97.3802 175.458 97.4062 175.531C97.4375 175.583 97.4531 175.63 97.4792 175.688L97.5937 175.875L97.7344 176.052C98.1562 176.51 98.776 176.865 99.4167 177.146C100.719 177.708 102.161 178.037 103.609 178.26C105.057 178.474 106.526 178.62 108 178.662C110.948 178.771 113.906 178.625 116.828 178.276C119.745 177.927 122.646 177.385 125.375 176.521C126.729 176.089 128.052 175.552 129.151 174.865C129.703 174.531 130.177 174.135 130.495 173.745C130.714 173.479 131.099 172.662 131.422 172.047C132.771 169.406 134.115 166.703 135.635 164.057C137.161 161.422 138.854 158.823 140.995 156.464C142.062 155.287 143.26 154.172 144.651 153.24C146.021 152.297 147.62 151.557 149.339 151.182L147.932 152.787C148.104 150.625 148.312 148.469 148.521 146.313C148.734 144.156 148.948 142.005 149.198 139.849L149.573 136.62C149.708 135.537 149.807 134.474 149.964 133.38L150.443 130.109L150.688 128.479L150.823 127.719L150.938 126.958C151.229 124.87 151.432 122.719 151.635 120.583C151.828 118.443 151.979 116.292 152.115 114.146C152.234 112 152.339 109.849 152.354 107.698C152.354 106.625 152.359 105.552 152.286 104.49C152.25 103.958 152.214 103.422 152.13 102.901C152.047 102.385 151.953 101.849 151.714 101.417L151.99 101.229C152.344 101.714 152.505 102.25 152.672 102.781C152.833 103.313 152.943 103.854 153.047 104.391C153.24 105.474 153.385 106.557 153.495 107.646C153.714 109.823 153.823 111.995 153.885 114.172C153.953 116.349 153.953 118.526 153.917 120.703C153.891 122.885 153.812 125.052 153.63 127.26L153.552 128.115L153.448 128.958L153.307 130.547L152.995 133.714C152.891 134.771 152.828 135.859 152.745 136.932L152.5 140.162L151.49 153.073L151.385 154.391L150.083 154.677C147.682 155.198 145.453 156.823 143.536 158.839C141.604 160.849 139.969 163.25 138.427 165.724C136.885 168.208 135.495 170.813 134.042 173.443L133.479 174.432C133.333 174.698 133.021 175.234 132.698 175.594C132.042 176.333 131.302 176.849 130.568 177.266C129.089 178.083 127.578 178.563 126.068 178.958C123.042 179.703 120.01 180.016 116.979 180.162C113.953 180.292 110.927 180.229 107.917 179.964C106.411 179.818 104.906 179.646 103.417 179.359C101.927 179.057 100.432 178.724 99 178.083C98.2865 177.755 97.5729 177.365 96.9844 176.714L96.7812 176.448L96.599 176.162C96.5417 176.052 96.4896 175.922 96.4427 175.807C96.4115 175.703 96.3906 175.62 96.3646 175.531L96.2344 174.99C96.1875 174.823 96.125 174.656 96.0677 174.49C95.8281 173.828 95.5156 173.172 95.1615 172.537C94.8073 171.896 94.4271 171.266 94.0156 170.656C93.1979 169.432 92.3229 168.24 91.401 167.078C90.4792 165.922 89.5208 164.792 88.5417 163.677C86.5729 161.453 84.5312 159.297 82.4583 157.167L81.6823 156.359L81.2656 155.927L81.151 155.802L81.1302 155.776C81.1458 155.802 81.0833 155.724 81.0677 155.698C81.0312 155.641 81 155.578 80.9687 155.516C80.9062 155.396 80.8542 155.266 80.8073 155.141L80.776 155.042L80.7656 155L80.7448 154.922C80.5208 154.089 80.3854 153.391 80.2344 152.635C79.9479 151.151 79.6927 149.677 79.4375 148.203C78.9583 145.24 78.5469 142.287 78.2135 139.292C78.0625 137.729 77.8854 136.307 77.7031 134.854L77.1458 130.438L76.5781 126L75.7812 119.313L75.3437 114.854C75.2604 114.099 75.2448 113.318 75.224 112.557C75.2344 111.037 75.2708 109.526 75.4167 108.026C75.5365 106.531 75.7187 105.037 75.9479 103.557L76.2812 103.583Z" fill="#FF6500"/>
</g>
<path d="M88.5312 111.589C88.5521 111.531 88.6406 111.547 88.6823 111.552C88.7396 111.563 88.7917 111.578 88.8438 111.594C88.9427 111.63 89.0365 111.672 89.1354 111.719C89.3281 111.802 89.5104 111.896 89.6927 111.995C90.0625 112.193 90.4167 112.401 90.7656 112.62C91.4583 113.052 92.1302 113.521 92.7865 113.995C93.4479 114.474 94.0937 114.958 94.724 115.464C95.3594 115.964 95.974 116.479 96.5885 117.005L95.4635 116.505C95.8333 116.469 96.2083 116.453 96.5885 116.422L97.7135 116.349C98.4635 116.313 99.2135 116.255 99.9635 116.229C100.714 116.203 101.464 116.151 102.208 116.141C102.958 116.12 103.703 116.078 104.448 116.073L106.677 116.021C107.417 116.01 108.151 115.984 108.875 115.958C109.594 115.943 110.323 115.906 110.932 115.849L111.276 115.807C111.286 115.807 111.339 115.802 111.312 115.807L111.25 115.839L111.24 115.854L111.229 115.859L111.172 115.891C111.089 115.932 111.01 115.984 110.943 116.042C110.906 116.073 110.875 116.109 110.844 116.141L110.797 116.193L110.776 116.219L110.812 116.177L110.969 116.036L111.188 115.833C111.255 115.771 111.375 115.682 111.469 115.615C111.505 115.589 111.599 115.526 111.693 115.474L111.833 115.401L111.901 115.365L112.042 115.313C112.141 115.276 112.245 115.245 112.349 115.224L112.505 115.193C112.568 115.182 112.703 115.172 112.802 115.177C113.016 115.177 113.234 115.214 113.432 115.276C113.677 115.354 113.938 115.5 114.141 115.682C114.193 115.724 114.24 115.776 114.286 115.818L114.375 115.927C114.438 116 114.49 116.083 114.542 116.161C114.594 116.245 114.635 116.333 114.672 116.417C114.703 116.49 114.714 116.521 114.734 116.578C114.766 116.682 114.792 116.786 114.812 116.891C114.823 116.964 114.828 117.021 114.833 117.089C114.854 117.589 114.807 117.698 114.745 118.005L110.979 117.401L111.203 115.797L111.448 114.182C111.615 113.104 111.792 112.026 111.974 110.948L112.547 107.714C112.635 107.177 112.729 106.641 112.812 106.094C112.849 105.823 112.891 105.552 112.917 105.281C112.938 105.01 112.964 104.74 112.911 104.458C113.115 104.672 113.224 104.953 113.339 105.219C113.448 105.484 113.542 105.76 113.62 106.036C113.786 106.583 113.911 107.141 114.021 107.693C114.135 108.25 114.224 108.807 114.302 109.365C114.385 109.917 114.443 110.474 114.51 111.031C114.62 112.141 114.693 113.255 114.745 114.365L114.792 116.026V117.698L111.026 117.099C111 117.219 110.979 117.141 110.984 117.453C110.99 117.495 110.995 117.531 111 117.578C111.016 117.661 111.036 117.745 111.062 117.823C111.078 117.865 111.089 117.891 111.109 117.948C111.141 118.026 111.177 118.104 111.224 118.172C111.266 118.245 111.318 118.318 111.37 118.38L111.453 118.474C111.49 118.516 111.536 118.563 111.583 118.604C111.766 118.771 112.005 118.901 112.229 118.969C112.401 119.031 112.599 119.068 112.792 119.068C112.88 119.068 113 119.052 113.052 119.047C113.094 119.042 113.135 119.036 113.177 119.026C113.26 119.01 113.339 118.99 113.417 118.958L113.562 118.901L113.641 118.859C113.693 118.833 113.745 118.792 113.745 118.797L113.802 118.76L113.818 118.75L113.729 118.859L113.682 118.911L113.677 118.917C113.646 118.948 113.719 118.87 113.703 118.885L113.594 118.995C113.547 119.042 113.49 119.089 113.438 119.13C113.328 119.219 113.214 119.297 113.094 119.37L113.005 119.417L112.964 119.438L112.885 119.474C112.776 119.521 112.672 119.563 112.562 119.604C112.443 119.651 112.406 119.656 112.323 119.682C112.01 119.776 111.802 119.813 111.557 119.865C111.12 119.953 110.698 120.005 110.302 120.052C109.896 120.099 109.505 120.135 109.109 120.167C108.719 120.203 108.333 120.214 107.943 120.24L106.786 120.286C106.021 120.313 105.255 120.307 104.49 120.313C103.729 120.318 102.969 120.286 102.208 120.266C101.448 120.25 100.688 120.193 99.9271 120.151C99.1719 120.109 98.4115 120.036 97.6562 119.974L96.5156 119.859C96.1406 119.818 95.7604 119.781 95.3802 119.729L94.5469 119.615L94.25 119.229C93.7708 118.604 93.2813 117.974 92.8073 117.333C92.3229 116.698 91.8542 116.047 91.3854 115.396C90.9167 114.75 90.4531 114.094 89.9948 113.438L89.2969 112.448C89.1823 112.286 89.0677 112.12 88.9427 111.964C88.8802 111.885 88.8177 111.807 88.7552 111.734C88.6875 111.672 88.6198 111.557 88.5312 111.589Z" fill="#FF6500"/>
<mask id="mask5_66_1071" style="mask-type:luminance" maskUnits="userSpaceOnUse" x="91" y="117" width="24" height="9">
<path d="M91 117H115V125.552H91V117Z" fill="white"/>
</mask>
<g mask="url(#mask5_66_1071)">
<path d="M94.7083 118.203C94.3281 119.099 94.0573 120.016 93.8438 120.917C93.7969 121.141 93.7604 121.37 93.7135 121.589C93.6667 121.813 93.6458 122.042 93.6146 122.266C93.5781 122.484 93.5677 122.708 93.5469 122.927C93.526 123.151 93.5104 123.37 93.5208 123.589C93.526 123.807 93.5 124.021 93.5208 124.234L93.5677 124.875C93.5885 125.083 93.6354 125.292 93.6615 125.495L93.7083 125.802L93.7865 126.104C93.8438 126.302 93.8854 126.5 93.9479 126.693L94.1563 127.266C94.2135 127.453 94.3073 127.635 94.3958 127.813C94.4896 127.995 94.5781 128.172 94.6563 128.354L93.6667 127.432C94.3594 127.615 95.0625 127.776 95.7552 127.969L97.8385 128.521L99.9115 129.099L101.979 129.693L106.073 130.906L108.094 131.49L109.078 131.755L110 131.974C110.109 131.99 110.219 132.01 110.333 132.037L110.37 132.047H110.38C110.073 132.047 110.302 132.047 110.234 132.047H110.276L110.411 132.052H110.464H110.396C110.297 132.063 110.198 132.078 110.094 132.104C109.995 132.135 109.901 132.177 109.813 132.224L109.781 132.245C109.406 132.49 109.448 132.458 109.495 132.432C109.516 132.417 109.542 132.401 109.495 132.427L109.51 132.417L109.536 132.401C109.724 132.26 109.38 132.479 109.297 132.656C109.271 132.703 109.276 132.698 109.281 132.688L109.286 132.677L109.307 132.651C109.354 132.568 109.406 132.474 109.469 132.339C109.714 131.833 109.938 131.167 110.146 130.526C110.578 129.219 110.964 127.854 111.354 126.49L111.922 124.427L112.469 122.349C112.646 121.656 112.823 120.958 112.974 120.255C113.12 119.552 113.286 118.854 113.286 118.12C113.635 118.787 113.776 119.547 113.906 120.281C114.026 121.021 114.094 121.766 114.141 122.505C114.224 123.99 114.219 125.469 114.13 126.948C114.047 128.427 113.891 129.896 113.635 131.391C113.49 132.146 113.349 132.88 113.078 133.719C113.016 133.927 112.917 134.162 112.813 134.401L112.703 134.615L112.646 134.724C112.62 134.771 112.63 134.766 112.557 134.87C112.365 135.188 111.932 135.568 111.969 135.531L111.943 135.552L111.927 135.563C111.88 135.594 111.901 135.578 111.927 135.568C111.969 135.542 112.005 135.516 111.63 135.76L111.578 135.781C111.448 135.844 111.313 135.896 111.167 135.938C111.026 135.979 110.875 136.005 110.734 136.021L110.583 136.037L110.453 136.047H110.417L110.406 136.052H110.219L110.13 136.042L109.38 135.984C108.969 135.932 108.563 135.865 108.182 135.787L107.063 135.547C106.333 135.385 105.615 135.193 104.911 134.995C104.198 134.802 103.495 134.599 102.802 134.38C102.104 134.162 101.406 133.948 100.719 133.714L98.6563 133.005L96.6198 132.245C95.9375 131.99 95.2708 131.708 94.5938 131.438C93.9219 131.172 93.2552 130.875 92.5833 130.589L91.7656 130.245L91.5885 129.672C91.5104 129.406 91.4323 129.135 91.3646 128.865C91.2865 128.599 91.2135 128.333 91.1823 128.057L91.0573 127.234C91.0313 126.964 91.0313 126.688 91.0208 126.412L91.0104 126.005L91.0417 125.599C91.0625 125.328 91.0729 125.057 91.1146 124.792L91.2656 124.005C91.3125 123.745 91.3958 123.49 91.4688 123.24C91.5365 122.984 91.625 122.74 91.724 122.5C91.8229 122.255 91.9063 122.016 92.026 121.787C92.1458 121.557 92.2448 121.323 92.375 121.104C92.5 120.88 92.625 120.662 92.7656 120.453C92.9063 120.24 93.0365 120.031 93.1927 119.833C93.349 119.635 93.4896 119.432 93.6563 119.245C93.9844 118.875 94.3229 118.51 94.7083 118.203Z" fill="#FF6500"/>
</g>
<mask id="mask6_66_1071" style="mask-type:luminance" maskUnits="userSpaceOnUse" x="113" y="115" width="26" height="11">
<path d="M113.667 115.667H139V125.552H113.667V115.667Z" fill="white"/>
</mask>
<g mask="url(#mask6_66_1071)">
<path d="M115.958 134.052C116.318 133.865 116.687 133.693 117.062 133.526C117.432 133.359 117.807 133.182 118.182 133.026C118.932 132.708 119.693 132.412 120.453 132.12C121.219 131.839 121.99 131.563 122.771 131.313C123.547 131.057 124.333 130.823 125.125 130.604L126.318 130.287L127.531 130.01C127.932 129.912 128.344 129.839 128.755 129.766C129.167 129.693 129.578 129.615 130.005 129.563C130.427 129.516 130.844 129.438 131.276 129.412L132.578 129.333L133.943 129.359C134.417 129.401 134.911 129.49 135.396 129.563L133.177 130.745C133.234 130.537 133.307 130.245 133.365 129.984C133.427 129.714 133.484 129.443 133.531 129.167C133.635 128.62 133.724 128.073 133.792 127.526C133.854 126.979 133.896 126.438 133.911 125.901C133.932 125.37 133.927 124.844 133.891 124.333C133.865 124.083 133.844 123.828 133.802 123.589C133.771 123.344 133.719 123.109 133.667 122.88C133.615 122.651 133.552 122.438 133.479 122.224C133.406 122.021 133.333 121.813 133.234 121.635C133.151 121.443 133.042 121.281 132.937 121.115L132.771 120.885L132.583 120.677C132.453 120.552 132.333 120.412 132.177 120.307C132.042 120.182 131.865 120.094 131.708 119.99L132.818 120.245C131.474 120.297 130.125 120.344 128.776 120.37C127.427 120.412 126.078 120.427 124.734 120.443C123.807 120.458 122.885 120.453 121.958 120.453C121.536 120.453 121.109 120.453 120.687 120.453C119.339 120.432 117.984 120.427 116.635 120.385L118.12 118.885C118.005 120.052 117.865 121.219 117.734 122.38C117.589 123.547 117.443 124.714 117.276 125.875C117.115 127.042 116.937 128.203 116.745 129.365C116.547 130.531 116.333 131.693 116.094 132.854C115.927 131.677 115.792 130.505 115.677 129.328C115.562 128.156 115.464 126.984 115.38 125.813C115.292 124.641 115.229 123.469 115.161 122.297C115.109 121.125 115.047 119.953 115.016 118.781L114.974 117.464L116.5 117.281C117.839 117.12 119.182 116.995 120.526 116.859C121.87 116.74 123.214 116.609 124.557 116.51C125.901 116.406 127.245 116.302 128.594 116.224C129.937 116.13 131.281 116.057 132.63 115.995L133.26 115.964L133.734 116.245C134.094 116.458 134.453 116.662 134.776 116.922C135.12 117.167 135.422 117.464 135.714 117.766L136.12 118.24L136.479 118.745C136.703 119.089 136.911 119.438 137.073 119.802C137.25 120.156 137.38 120.521 137.505 120.885C137.62 121.25 137.724 121.615 137.797 121.974C137.87 122.333 137.932 122.698 137.964 123.052C138.01 123.406 138.026 123.76 138.047 124.109C138.068 124.802 138.047 125.49 137.995 126.156C137.937 126.828 137.844 127.484 137.724 128.13C137.604 128.781 137.464 129.417 137.292 130.047C137.203 130.359 137.109 130.672 137.01 130.984C136.906 131.302 136.812 131.589 136.677 131.953L136.094 133.521L134.464 133.141L133.536 132.922L132.49 132.781L131.38 132.724C131.141 132.714 130.896 132.714 130.651 132.714C130.516 132.714 130.38 132.714 130.245 132.714C129.859 132.703 129.474 132.724 129.089 132.74C128.698 132.76 128.307 132.76 127.917 132.792L126.74 132.87L125.557 132.969C125.161 132.995 124.766 133.042 124.37 133.083L123.177 133.203L120.781 133.474L115.958 134.052Z" fill="#FF6500"/>
</g>
<path d="M132.724 118.12C132.724 118.12 132.776 118.089 132.849 118.026C132.875 117.979 132.854 117.932 132.854 117.88C132.87 117.807 132.865 117.76 132.88 117.688C132.891 117.547 132.906 117.375 132.922 117.182C132.943 116.995 132.969 116.792 133.01 116.573C133.089 116.146 133.219 115.682 133.427 115.245C133.625 114.797 133.906 114.375 134.24 113.995C134.573 113.615 134.969 113.276 135.401 113.016C135.833 112.75 136.307 112.552 136.76 112.417C136.984 112.354 137.208 112.302 137.417 112.266C137.62 112.229 137.823 112.214 137.984 112.198C138.141 112.177 138.297 112.182 138.391 112.177C138.49 112.182 138.547 112.182 138.547 112.182C138.547 112.182 138.563 112.24 138.583 112.333C138.594 112.422 138.635 112.573 138.651 112.729C138.667 112.896 138.693 113.099 138.698 113.307C138.703 113.521 138.693 113.75 138.672 113.995C138.625 114.469 138.505 114.984 138.302 115.469C138.099 115.958 137.802 116.417 137.438 116.828C137.073 117.234 136.646 117.594 136.161 117.859C135.682 118.13 135.161 118.318 134.651 118.417C134.396 118.464 134.146 118.495 133.911 118.495C133.677 118.505 133.443 118.479 133.255 118.443C133.172 118.427 133.063 118.406 132.995 118.37C132.911 118.344 132.813 118.297 132.781 118.26C132.734 118.172 132.724 118.115 132.724 118.12Z" fill="#FF6500"/>
<path d="M144.516 101.078C144.516 100.172 143.422 99.4375 142.073 99.4375C140.719 99.4375 139.625 100.172 139.625 101.078C139.625 101.99 140.719 102.724 142.073 102.724C143.422 102.724 144.516 101.99 144.516 101.078Z" fill="#FF6500"/>
<path d="M87.151 101.078C87.151 100.172 86.0573 99.4375 84.7083 99.4375C83.3594 99.4375 82.2656 100.172 82.2656 101.078C82.2656 101.99 83.3594 102.724 84.7083 102.724C86.0573 102.724 87.151 101.99 87.151 101.078Z" fill="#FF6500"/>
<path d="M90.6042 103.49C98.125 99.7605 107.458 93.1146 107.458 93.1146C103.833 101.271 90.6042 103.49 90.6042 103.49Z" fill="#FF6500"/>
<mask id="mask7_66_1071" style="mask-type:luminance" maskUnits="userSpaceOnUse" x="93" y="123" width="17" height="3">
<path d="M93.6667 123.667H109.667V125.552H93.6667V123.667Z" fill="white"/>
</mask>
<g mask="url(#mask7_66_1071)">
<path d="M108.396 129.641C92.0833 127.224 95.0364 124.536 95.0364 124.536C96.9167 127.089 108.396 129.641 108.396 129.641Z" fill="#FF6500"/>
</g>
<path d="M140.135 104.661C128.479 104.661 123.703 98.3021 123.703 98.3021C130.891 103.688 143.849 104.458 143.849 104.458C142.536 104.599 141.302 104.667 140.135 104.661Z" fill="#FF6500"/>
<mask id="mask8_66_1071" style="mask-type:luminance" maskUnits="userSpaceOnUse" x="75" y="0" width="15" height="36">
<path d="M75 0.895874H89.6667V35.6667H75V0.895874Z" fill="white"/>
</mask>
<g mask="url(#mask8_66_1071)">
<path d="M89.2135 7.73442C89.2135 3.95837 86.151 0.895874 82.276 0.895874C78.7031 0.895874 75.6406 3.95837 75.5417 7.63025C75.5417 9.97921 76.6615 12.1198 78.5 13.3438C79.3177 13.9584 79.8281 14.875 79.8281 15.7969V34.8802H84.9271V15.7969C84.9271 14.7761 85.3385 13.8542 86.151 13.3438C87.9896 12.1198 89.2135 10.0782 89.2135 7.73442Z" fill="white"/>
</g>
<mask id="mask9_66_1071" style="mask-type:luminance" maskUnits="userSpaceOnUse" x="136" y="0" width="15" height="36">
<path d="M136.333 0.895874H151V35.6667H136.333V0.895874Z" fill="white"/>
</mask>
<g mask="url(#mask9_66_1071)">
<path d="M150.448 7.73442C150.448 3.95837 147.385 0.895874 143.609 0.895874C140.036 0.895874 136.974 3.95837 136.875 7.63025C136.875 9.97921 137.995 12.1198 139.833 13.3438C140.651 13.9584 141.161 14.875 141.161 15.7969V34.8802H146.26V15.7969C146.26 14.7761 146.672 13.8542 147.484 13.3438C149.219 12.1198 150.448 10.0782 150.448 7.73442Z" fill="white"/>
</g>
<path d="M131.057 39.0625C119.729 42.4271 106.974 42.7343 94.9323 39.0625C93.5 38.6562 91.9688 39.2656 91.3594 40.5937C88.9115 45.5937 87.4792 51.8177 87.4792 58.7552C87.4792 62.5312 98.9115 65.5937 112.995 65.5937C127.078 65.5937 138.505 62.5312 138.505 58.7552C138.505 51.9218 137.078 45.5937 134.63 40.5937C134.016 39.2656 132.484 38.6562 131.057 39.0625ZM100.953 58.6562C98.0938 59.0625 95.6458 56.6146 96.0521 53.7552C96.3594 51.9218 97.7865 50.4896 99.625 50.1875C102.479 49.776 104.932 52.2239 104.521 55.0833C104.115 56.9218 102.688 58.4531 100.953 58.6562ZM126.359 58.6562C123.505 59.0625 121.057 56.6146 121.464 53.7552C121.771 51.9218 123.198 50.4896 125.036 50.1875C127.891 49.776 130.344 52.2239 129.932 55.0833C129.625 56.9218 128.198 58.4531 126.359 58.6562Z" fill="white"/>
<mask id="mask10_66_1071" style="mask-type:luminance" maskUnits="userSpaceOnUse" x="72" y="14" width="83" height="69">
<path d="M72.1719 14.3334H154.172V82.8959H72.1719V14.3334Z" fill="white"/>
</mask>
<g mask="url(#mask10_66_1071)">
<path d="M112.995 14.4688C90.4375 14.4688 72.1719 34.2656 72.1719 58.6562C72.1719 71.9219 90.4375 82.5365 112.995 82.5365C135.547 82.5365 153.812 71.9219 153.812 58.7552C153.812 34.2656 135.547 14.4688 112.995 14.4688ZM112.995 75.6979C92.9896 75.6979 79.0104 66.7188 79.0104 58.6562C79.0104 38.0417 94.2135 21.3073 112.995 21.3073C131.771 21.3073 146.974 38.0417 146.974 58.7552C146.974 66.8177 132.995 75.6979 112.995 75.6979Z" fill="white"/>
</g>
<mask id="mask11_66_1071" style="mask-type:luminance" maskUnits="userSpaceOnUse" x="124" y="16" width="18" height="15">
<path d="M124.333 16.6355H141.667V30.3334H124.333V16.6355Z" fill="white"/>
</mask>
<g mask="url(#mask11_66_1071)">
<path d="M125.615 26.5782C124.979 26.0834 124.792 25.1927 125.203 24.4792C125.646 23.698 126.641 23.4271 127.427 23.8698C131.068 25.9532 133.828 26.5157 135.406 25.5C137.505 24.1511 137.63 20.0313 137.5 18.5469C137.422 17.6563 138.078 16.8646 138.979 16.7813C139.88 16.7032 140.677 17.3646 140.745 18.25C140.776 18.5469 141.375 25.5365 137.177 28.2448C134.469 29.9792 130.646 29.4636 125.807 26.7032C125.74 26.6667 125.672 26.625 125.615 26.5782Z" fill="#FF6500"/>
</g>
<mask id="mask12_66_1071" style="mask-type:luminance" maskUnits="userSpaceOnUse" x="122" y="29" width="15" height="19">
<path d="M122.953 29H136.333V47.6667H122.953V29Z" fill="white"/>
</mask>
<g mask="url(#mask12_66_1071)">
<path d="M129.635 47.1406C128.974 46.6302 128.812 45.6979 129.255 44.9791C131.729 41.0677 132.495 38.0364 131.458 36.2135C129.917 33.4687 124.719 33.5521 124.656 33.5468C123.755 33.5885 123.005 32.8541 122.984 31.9635C122.964 31.0625 123.667 30.3177 124.568 30.2916C124.865 30.276 131.766 30.1875 134.286 34.5937C135.984 37.5833 135.214 41.6562 132.021 46.7239C131.531 47.4791 130.526 47.7135 129.766 47.2239C129.719 47.1979 129.672 47.1718 129.635 47.1406Z" fill="#FF6500"/>
</g>
<path d="M145.865 34.0625C144.734 33.1823 143.974 32.1041 143.563 30.8333C142.026 26.0521 146.313 20.7083 146.813 20.1146C147.37 19.4375 148.365 19.3281 149.063 19.8698C149.073 19.8802 149.083 19.8906 149.104 19.9062C149.797 20.4791 149.891 21.5 149.318 22.1927C148.297 23.4375 145.823 27.2187 146.667 29.8385C147.125 31.2396 148.599 32.2708 151.005 32.9114L156.01 33.7291C156.906 33.875 157.5 34.7187 157.354 35.6041C157.208 36.4948 156.37 37.0989 155.484 36.9479L150.333 36.0989C148.479 35.6198 146.984 34.9323 145.865 34.0625Z" fill="#FF6500"/>
<mask id="mask13_66_1071" style="mask-type:luminance" maskUnits="userSpaceOnUse" x="135" y="37" width="20" height="15">
<path d="M135 37H155V51.6354H135V37Z" fill="white"/>
</mask>
<g mask="url(#mask13_66_1071)">
<path d="M136.339 51.4063C135.766 50.9584 135.552 50.1563 135.854 49.4532L139.203 41.9427C139.823 40.4688 140.979 39.3698 142.505 38.7917C146.823 37.1771 153.042 40.0782 153.734 40.4167C154.563 40.7969 154.88 41.7813 154.484 42.5886C154.099 43.4011 153.12 43.7448 152.307 43.349C150.771 42.6094 146.203 40.8854 143.651 41.849C142.953 42.1146 142.484 42.5573 142.198 43.25L138.839 50.7917C138.464 51.6042 137.5 51.974 136.682 51.6094C136.557 51.5521 136.443 51.4896 136.339 51.4063Z" fill="#FF6500"/>
</g>
</svg>
