<svg xmlns="http://www.w3.org/2000/svg" xmlns:xlink="http://www.w3.org/1999/xlink" width="500" zoomAndPan="magnify" viewBox="0 0 375 374.999991" height="500" preserveAspectRatio="xMidYMid meet" version="1.0"><defs><clipPath id="086b5826b8"><path d="M 81 91.640625 L 123 91.640625 L 123 283.640625 L 81 283.640625 Z M 81 91.640625 " clip-rule="nonzero"/></clipPath><clipPath id="a01499dea4"><path d="M 252 91.640625 L 294 91.640625 L 294 283.640625 L 252 283.640625 Z M 252 91.640625 " clip-rule="nonzero"/></clipPath></defs><path fill="#ff6500" d="M 20.476562 174.257812 L 20.476562 202.867188 C 20.476562 203.003906 20.449219 203.132812 20.398438 203.257812 C 20.347656 203.382812 20.273438 203.496094 20.175781 203.589844 C 20.082031 203.6875 19.972656 203.761719 19.847656 203.8125 C 19.722656 203.863281 19.589844 203.890625 19.453125 203.890625 L 6.191406 203.890625 C 5.789062 203.890625 5.390625 203.851562 4.996094 203.773438 C 4.601562 203.691406 4.21875 203.578125 3.847656 203.421875 C 3.472656 203.269531 3.121094 203.078125 2.785156 202.855469 C 2.453125 202.632812 2.140625 202.378906 1.855469 202.09375 C 1.574219 201.808594 1.316406 201.5 1.09375 201.164062 C 0.871094 200.832031 0.683594 200.476562 0.527344 200.105469 C 0.375 199.734375 0.257812 199.351562 0.179688 198.953125 C 0.101562 198.558594 0.0625 198.160156 0.0625 197.757812 L 0.0625 179.324219 C 0.0625 178.921875 0.101562 178.523438 0.179688 178.128906 C 0.257812 177.734375 0.375 177.351562 0.527344 176.980469 C 0.683594 176.609375 0.871094 176.253906 1.09375 175.917969 C 1.316406 175.585938 1.574219 175.273438 1.855469 174.992188 C 2.140625 174.707031 2.453125 174.453125 2.785156 174.226562 C 3.121094 174.003906 3.472656 173.816406 3.847656 173.660156 C 4.21875 173.507812 4.601562 173.390625 4.996094 173.3125 C 5.390625 173.234375 5.789062 173.195312 6.191406 173.195312 L 19.453125 173.195312 C 19.589844 173.195312 19.722656 173.222656 19.847656 173.273438 C 19.972656 173.324219 20.082031 173.398438 20.175781 173.492188 C 20.273438 173.589844 20.347656 173.699219 20.398438 173.824219 C 20.449219 173.949219 20.476562 174.082031 20.476562 174.214844 Z M 20.476562 174.257812 " fill-opacity="1" fill-rule="nonzero"/><path fill="#ff6500" d="M 375.121094 179.324219 L 375.121094 197.71875 C 375.121094 198.121094 375.082031 198.519531 375.003906 198.914062 C 374.925781 199.308594 374.808594 199.691406 374.65625 200.0625 C 374.5 200.4375 374.3125 200.789062 374.089844 201.125 C 373.867188 201.457031 373.613281 201.769531 373.328125 202.054688 C 373.042969 202.335938 372.734375 202.59375 372.398438 202.816406 C 372.0625 203.039062 371.710938 203.226562 371.335938 203.382812 C 370.964844 203.535156 370.582031 203.652344 370.1875 203.730469 C 369.792969 203.808594 369.394531 203.847656 368.992188 203.847656 L 355.730469 203.847656 C 355.59375 203.847656 355.464844 203.824219 355.335938 203.769531 C 355.210938 203.71875 355.101562 203.644531 355.007812 203.550781 C 354.910156 203.453125 354.835938 203.34375 354.785156 203.21875 C 354.734375 203.09375 354.707031 202.960938 354.707031 202.828125 L 354.707031 174.214844 C 354.707031 174.082031 354.734375 173.949219 354.785156 173.824219 C 354.835938 173.699219 354.910156 173.589844 355.007812 173.492188 C 355.101562 173.398438 355.210938 173.324219 355.335938 173.273438 C 355.464844 173.222656 355.59375 173.195312 355.730469 173.195312 L 368.992188 173.195312 C 369.394531 173.195312 369.792969 173.234375 370.1875 173.3125 C 370.582031 173.390625 370.964844 173.507812 371.335938 173.660156 C 371.710938 173.816406 372.0625 174.003906 372.398438 174.226562 C 372.734375 174.453125 373.042969 174.707031 373.328125 174.992188 C 373.613281 175.273438 373.867188 175.585938 374.089844 175.917969 C 374.3125 176.253906 374.5 176.609375 374.65625 176.980469 C 374.808594 177.351562 374.925781 177.734375 375.003906 178.128906 C 375.082031 178.523438 375.121094 178.921875 375.121094 179.324219 Z M 375.121094 179.324219 " fill-opacity="1" fill-rule="nonzero"/><path fill="#ff6500" d="M 71.421875 130.421875 L 71.421875 244.578125 C 71.421875 245.25 71.359375 245.914062 71.226562 246.570312 C 71.097656 247.230469 70.902344 247.867188 70.644531 248.488281 C 70.390625 249.109375 70.074219 249.695312 69.703125 250.253906 C 69.328125 250.8125 68.90625 251.328125 68.429688 251.804688 C 67.957031 252.277344 67.441406 252.699219 66.882812 253.074219 C 66.324219 253.445312 65.734375 253.761719 65.117188 254.019531 C 64.496094 254.273438 63.855469 254.46875 63.199219 254.597656 C 62.542969 254.730469 61.875 254.796875 61.207031 254.796875 L 40.769531 254.796875 C 40.097656 254.796875 39.433594 254.730469 38.777344 254.597656 C 38.117188 254.46875 37.480469 254.273438 36.859375 254.019531 C 36.238281 253.761719 35.652344 253.445312 35.09375 253.074219 C 34.535156 252.699219 34.019531 252.277344 33.542969 251.804688 C 33.070312 251.328125 32.648438 250.8125 32.273438 250.253906 C 31.902344 249.695312 31.585938 249.109375 31.328125 248.488281 C 31.074219 247.867188 30.878906 247.230469 30.75 246.570312 C 30.617188 245.914062 30.550781 245.25 30.550781 244.578125 L 30.550781 130.421875 C 30.550781 129.75 30.617188 129.085938 30.75 128.429688 C 30.878906 127.769531 31.074219 127.132812 31.328125 126.511719 C 31.585938 125.890625 31.902344 125.304688 32.273438 124.746094 C 32.648438 124.1875 33.070312 123.671875 33.542969 123.195312 C 34.019531 122.722656 34.535156 122.300781 35.09375 121.925781 C 35.652344 121.554688 36.238281 121.238281 36.859375 120.980469 C 37.480469 120.726562 38.117188 120.53125 38.777344 120.402344 C 39.433594 120.269531 40.097656 120.203125 40.769531 120.203125 L 61.207031 120.203125 C 61.875 120.203125 62.542969 120.269531 63.199219 120.402344 C 63.855469 120.53125 64.496094 120.726562 65.117188 120.980469 C 65.734375 121.238281 66.324219 121.554688 66.882812 121.925781 C 67.441406 122.300781 67.957031 122.722656 68.429688 123.195312 C 68.90625 123.671875 69.328125 124.1875 69.703125 124.746094 C 70.074219 125.304688 70.390625 125.890625 70.644531 126.511719 C 70.902344 127.132812 71.097656 127.769531 71.226562 128.429688 C 71.359375 129.085938 71.421875 129.75 71.421875 130.421875 Z M 71.421875 130.421875 " fill-opacity="1" fill-rule="nonzero"/><g clip-path="url(#086b5826b8)"><path fill="#ff6500" d="M 122.371094 101.894531 L 122.371094 273.105469 C 122.371094 273.777344 122.304688 274.441406 122.175781 275.101562 C 122.042969 275.757812 121.847656 276.398438 121.59375 277.015625 C 121.335938 277.636719 121.019531 278.226562 120.648438 278.78125 C 120.277344 279.339844 119.851562 279.855469 119.378906 280.332031 C 118.902344 280.804688 118.386719 281.230469 117.828125 281.601562 C 117.273438 281.976562 116.683594 282.289062 116.0625 282.546875 C 115.441406 282.804688 114.804688 282.996094 114.144531 283.128906 C 113.488281 283.257812 112.824219 283.324219 112.152344 283.324219 L 91.714844 283.324219 C 91.046875 283.324219 90.382812 283.257812 89.722656 283.128906 C 89.066406 282.996094 88.425781 282.804688 87.804688 282.546875 C 87.1875 282.289062 86.597656 281.976562 86.039062 281.601562 C 85.480469 281.230469 84.964844 280.804688 84.492188 280.332031 C 84.015625 279.855469 83.59375 279.339844 83.21875 278.78125 C 82.847656 278.226562 82.53125 277.636719 82.277344 277.015625 C 82.019531 276.398438 81.824219 275.757812 81.695312 275.101562 C 81.5625 274.441406 81.5 273.777344 81.5 273.105469 L 81.5 101.894531 C 81.5 101.222656 81.5625 100.558594 81.695312 99.898438 C 81.824219 99.242188 82.019531 98.601562 82.277344 97.984375 C 82.53125 97.363281 82.847656 96.773438 83.21875 96.21875 C 83.59375 95.660156 84.015625 95.144531 84.492188 94.667969 C 84.964844 94.195312 85.480469 93.769531 86.039062 93.398438 C 86.597656 93.023438 87.1875 92.710938 87.804688 92.453125 C 88.425781 92.195312 89.066406 92.003906 89.722656 91.871094 C 90.382812 91.742188 91.046875 91.675781 91.714844 91.675781 L 112.152344 91.675781 C 112.824219 91.675781 113.488281 91.742188 114.144531 91.871094 C 114.804688 92.003906 115.441406 92.195312 116.0625 92.453125 C 116.683594 92.710938 117.273438 93.023438 117.828125 93.398438 C 118.386719 93.769531 118.902344 94.195312 119.378906 94.667969 C 119.851562 95.144531 120.277344 95.660156 120.648438 96.21875 C 121.019531 96.773438 121.335938 97.363281 121.59375 97.984375 C 121.847656 98.601562 122.042969 99.242188 122.175781 99.898438 C 122.304688 100.558594 122.371094 101.222656 122.371094 101.894531 Z M 122.371094 101.894531 " fill-opacity="1" fill-rule="nonzero"/></g><path fill="#ff6500" d="M 344.550781 130.421875 L 344.550781 244.578125 C 344.550781 245.25 344.484375 245.914062 344.355469 246.570312 C 344.222656 247.230469 344.03125 247.867188 343.773438 248.488281 C 343.515625 249.109375 343.199219 249.695312 342.828125 250.253906 C 342.457031 250.8125 342.03125 251.328125 341.558594 251.804688 C 341.082031 252.277344 340.566406 252.699219 340.007812 253.074219 C 339.453125 253.445312 338.863281 253.761719 338.242188 254.019531 C 337.621094 254.273438 336.984375 254.46875 336.324219 254.597656 C 335.667969 254.730469 335.003906 254.796875 334.332031 254.796875 L 313.894531 254.796875 C 313.226562 254.796875 312.5625 254.730469 311.902344 254.597656 C 311.246094 254.46875 310.605469 254.273438 309.984375 254.019531 C 309.367188 253.761719 308.777344 253.445312 308.21875 253.074219 C 307.660156 252.699219 307.144531 252.277344 306.671875 251.804688 C 306.195312 251.328125 305.773438 250.8125 305.402344 250.253906 C 305.027344 249.695312 304.714844 249.109375 304.457031 248.488281 C 304.199219 247.867188 304.003906 247.230469 303.875 246.570312 C 303.742188 245.914062 303.679688 245.25 303.679688 244.578125 L 303.679688 130.421875 C 303.679688 129.75 303.742188 129.085938 303.875 128.429688 C 304.003906 127.769531 304.199219 127.132812 304.457031 126.511719 C 304.714844 125.890625 305.027344 125.304688 305.402344 124.746094 C 305.773438 124.1875 306.195312 123.671875 306.671875 123.195312 C 307.144531 122.722656 307.660156 122.300781 308.21875 121.925781 C 308.777344 121.554688 309.367188 121.238281 309.984375 120.980469 C 310.605469 120.726562 311.246094 120.53125 311.902344 120.402344 C 312.5625 120.269531 313.226562 120.203125 313.894531 120.203125 L 334.332031 120.203125 C 335.003906 120.203125 335.667969 120.269531 336.324219 120.402344 C 336.984375 120.53125 337.621094 120.726562 338.242188 120.980469 C 338.863281 121.238281 339.453125 121.554688 340.007812 121.925781 C 340.566406 122.300781 341.082031 122.722656 341.558594 123.195312 C 342.03125 123.671875 342.457031 124.1875 342.828125 124.746094 C 343.199219 125.304688 343.515625 125.890625 343.773438 126.511719 C 344.027344 127.132812 344.222656 127.769531 344.355469 128.429688 C 344.484375 129.085938 344.550781 129.75 344.550781 130.421875 Z M 344.550781 130.421875 " fill-opacity="1" fill-rule="nonzero"/><g clip-path="url(#a01499dea4)"><path fill="#ff6500" d="M 293.582031 101.894531 L 293.582031 273.105469 C 293.582031 273.777344 293.519531 274.441406 293.386719 275.101562 C 293.253906 275.757812 293.0625 276.398438 292.804688 277.015625 C 292.546875 277.636719 292.234375 278.226562 291.859375 278.78125 C 291.488281 279.339844 291.066406 279.855469 290.589844 280.332031 C 290.117188 280.804688 289.601562 281.230469 289.042969 281.601562 C 288.484375 281.976562 287.894531 282.289062 287.273438 282.546875 C 286.65625 282.804688 286.015625 282.996094 285.359375 283.128906 C 284.699219 283.257812 284.035156 283.324219 283.363281 283.324219 L 262.929688 283.324219 C 262.257812 283.324219 261.59375 283.257812 260.9375 283.128906 C 260.277344 282.996094 259.640625 282.804688 259.019531 282.546875 C 258.398438 282.289062 257.808594 281.976562 257.253906 281.601562 C 256.695312 281.230469 256.179688 280.804688 255.703125 280.332031 C 255.230469 279.855469 254.804688 279.339844 254.433594 278.78125 C 254.058594 278.226562 253.746094 277.636719 253.488281 277.015625 C 253.230469 276.398438 253.039062 275.757812 252.90625 275.101562 C 252.777344 274.441406 252.710938 273.777344 252.710938 273.105469 L 252.710938 101.894531 C 252.710938 101.222656 252.777344 100.558594 252.90625 99.898438 C 253.039062 99.242188 253.230469 98.601562 253.488281 97.984375 C 253.746094 97.363281 254.058594 96.773438 254.433594 96.21875 C 254.804688 95.660156 255.230469 95.144531 255.703125 94.667969 C 256.179688 94.195312 256.695312 93.769531 257.253906 93.398438 C 257.808594 93.023438 258.398438 92.710938 259.019531 92.453125 C 259.640625 92.195312 260.277344 92.003906 260.9375 91.871094 C 261.59375 91.742188 262.257812 91.675781 262.929688 91.675781 L 283.363281 91.675781 C 284.035156 91.675781 284.699219 91.742188 285.359375 91.871094 C 286.015625 92.003906 286.65625 92.195312 287.273438 92.453125 C 287.894531 92.710938 288.484375 93.023438 289.042969 93.398438 C 289.601562 93.769531 290.117188 94.195312 290.589844 94.667969 C 291.066406 95.144531 291.488281 95.660156 291.859375 96.21875 C 292.234375 96.773438 292.546875 97.363281 292.804688 97.984375 C 293.0625 98.601562 293.253906 99.242188 293.386719 99.898438 C 293.519531 100.558594 293.582031 101.222656 293.582031 101.894531 Z M 293.582031 101.894531 " fill-opacity="1" fill-rule="nonzero"/></g><path fill="#ff6500" d="M 242.636719 164.058594 L 242.636719 212.984375 C 242.636719 213.117188 242.609375 213.25 242.558594 213.375 C 242.507812 213.5 242.433594 213.609375 242.335938 213.707031 C 242.242188 213.800781 242.128906 213.875 242.003906 213.925781 C 241.878906 213.980469 241.75 214.003906 241.613281 214.003906 L 133.589844 214.003906 C 133.453125 214.003906 133.324219 213.980469 133.199219 213.925781 C 133.074219 213.875 132.964844 213.800781 132.867188 213.707031 C 132.773438 213.609375 132.699219 213.5 132.644531 213.375 C 132.59375 213.25 132.566406 213.117188 132.566406 212.984375 L 132.566406 164.058594 C 132.566406 163.925781 132.59375 163.792969 132.644531 163.667969 C 132.699219 163.542969 132.773438 163.433594 132.867188 163.335938 C 132.964844 163.242188 133.074219 163.167969 133.199219 163.117188 C 133.324219 163.0625 133.453125 163.039062 133.589844 163.039062 L 241.613281 163.039062 C 241.75 163.039062 241.878906 163.0625 242.003906 163.117188 C 242.128906 163.167969 242.242188 163.242188 242.335938 163.335938 C 242.433594 163.433594 242.507812 163.542969 242.558594 163.667969 C 242.609375 163.792969 242.636719 163.925781 242.636719 164.058594 Z M 242.636719 164.058594 " fill-opacity="1" fill-rule="nonzero"/></svg>